<?xml version="1.0" standalone="no"?>
<!DOCTYPE svg PUBLIC "-//W3C//DTD SVG 20010904//EN" "http://www.w3.org/TR/2001/REC-SVG-20010904/DTD/svg10.dtd">
<svg xmlns="http://www.w3.org/2000/svg" version="1.0" width="740" height="740" viewBox="0 0 740.000000 740.000000" preserveAspectRatio="xMidYMid meet">

<g transform="translate(0.000000,740.000000) scale(0.100000,-0.100000)" fill="#303032" stroke="none">
<path d="M3337 7036 c-53 -19 -106 -62 -125 -103 -22 -46 -74 -70 -105 -48 -28 19 -80 19 -118 0 -32 -17 -69 -69 -69 -97 0 -15 -9 -18 -45 -18 -37 0 -51 -5 -70 -26 -28 -30 -40 -79 -32 -129 7 -41 -14 -53 -49 -30 -37 24 -97 19 -132 -10 -16 -14 -33 -36 -36 -50 -5 -19 -15 -27 -38 -32 -45 -9 -102 -70 -117 -126 -15 -52 -9 -87 21 -130 l20 -28 -20 -22 c-26 -29 -43 -92 -32 -121 4 -13 22 -34 39 -48 26 -23 28 -28 15 -39 -11 -9 -18 -9 -26 -1 -18 18 -73 14 -99 -7 -22 -17 -27 -17 -44 -5 -10 8 -34 14 -53 14 -41 0 -92 -46 -92 -83 0 -20 -6 -26 -35 -31 -40 -8 -99 -55 -121 -97 -21 -42 -17 -91 12 -134 l25 -38 -20 -21 c-41 -44 -20 -131 37 -155 21 -9 27 -18 27 -41 0 -17 -5 -30 -12 -30 -6 0 -20 -11 -31 -25 -14 -17 -30 -25 -51 -25 -57 0 -120 -47 -155 -116 -23 -47 -20 -266 4 -292 9 -10 19 -36 22 -58 l6 -40 -43 -12 c-78 -21 -123 -88 -104 -155 7 -25 5 -33 -16 -48 -34 -27 -50 -82 -35 -119 6 -16 20 -36 30 -45 15 -14 17 -21 8 -40 -22 -50 21 -135 68 -135 9 0 14 -12 14 -34 0 -76 43 -136 97 -136 25 0 33 -4 33 -18 0 -29 33 -52 72 -52 27 0 37 -5 45 -23 13 -28 69 -57 110 -57 16 0 45 9 66 19 29 15 37 16 37 5 0 -25 47 -47 90 -41 33 4 40 2 45 -14 14 -42 119 -65 160 -35 17 12 24 11 54 -5 61 -33 106 -19 131 41 17 40 45 39 66 -2 28 -53 125 -147 194 -189 53 -31 69 -46 79 -76 21 -58 54 -105 140 -200 l78 -88 -9 -113 c-5 -63 -17 -139 -27 -170 l-17 -57 -109 -11 c-382 -41 -645 -133 -686 -242 -5 -13 -9 -69 -9 -126 l0 -102 -52 -17 c-80 -26 -170 -80 -196 -118 -22 -33 -23 -39 -20 -226 l3 -192 30 -32 c36 -38 160 -100 249 -124 l66 -18 0 -116 0 -117 -35 -12 c-19 -7 -56 -33 -82 -56 l-48 -44 0 -200 0 -201 30 -31 c17 -17 45 -40 62 -52 l33 -20 0 -149 c0 -175 8 -203 72 -247 115 -79 324 -135 653 -174 150 -18 742 -18 890 0 294 36 520 95 625 163 86 56 90 67 90 271 0 201 -7 223 -82 272 l-47 31 0 142 -1 143 49 24 c57 29 109 78 117 110 3 12 4 104 2 204 l-3 181 -30 31 c-39 41 -128 86 -235 120 -73 22 -84 29 -83 48 0 12 1 37 2 55 1 32 4 35 70 61 91 36 157 79 181 118 18 30 20 51 20 211 0 194 -5 215 -57 253 -122 90 -380 156 -741 189 -84 8 -89 13 -103 109 -36 243 -34 291 16 315 17 7 48 28 70 46 45 36 106 69 148 79 67 16 207 134 254 213 21 37 23 47 14 79 -6 21 -9 38 -8 39 1 1 15 9 30 19 26 16 30 16 46 2 10 -9 27 -16 39 -16 25 0 62 33 62 54 0 10 13 14 45 14 l45 0 0 -41 c0 -48 6 -59 38 -76 18 -9 36 -10 74 -1 49 10 53 9 79 -16 39 -37 92 -41 151 -11 l48 24 19 -33 c34 -58 139 -66 186 -14 16 17 20 18 38 5 31 -22 99 -19 130 5 l26 20 33 -20 c73 -44 163 -14 194 66 15 41 16 48 1 84 -15 40 -15 40 9 46 36 9 74 60 74 99 0 25 -8 40 -31 59 -17 14 -35 26 -40 26 -5 0 -9 11 -9 25 0 14 -11 37 -24 50 l-24 24 24 22 c15 14 24 34 24 52 0 21 11 40 40 68 50 49 53 87 11 129 -18 19 -28 39 -27 57 0 15 -3 37 -7 48 -6 17 -1 23 28 34 67 24 104 116 71 180 -16 31 -16 32 10 67 37 48 39 112 5 148 -14 14 -33 26 -43 26 -13 0 -18 8 -18 28 0 35 -26 72 -51 72 -16 0 -19 7 -19 40 0 80 -38 117 -111 107 -30 -4 -46 -1 -57 10 -11 11 -28 14 -57 11 l-41 -5 4 34 c3 20 -2 43 -13 59 -14 21 -15 31 -6 51 35 76 -7 179 -81 197 -15 3 -29 15 -33 26 -3 10 -19 30 -36 44 -16 14 -29 31 -29 38 0 8 -5 19 -10 24 -8 8 -6 15 5 24 18 15 20 61 4 77 -9 9 -5 20 15 43 39 47 36 91 -9 127 -19 15 -35 33 -35 39 0 20 -38 45 -69 46 -23 1 -31 6 -31 19 0 27 -47 76 -86 89 -39 13 -80 6 -107 -17 -16 -15 -17 -14 -11 15 5 25 1 36 -20 57 -18 18 -25 33 -21 46 11 33 -5 98 -32 129 -16 20 -38 32 -63 36 -27 4 -37 10 -33 20 9 24 -18 83 -49 110 -25 20 -39 25 -67 21 -27 -3 -43 2 -64 19 -31 26 -85 39 -123 30 -27 -7 -59 -35 -85 -75 -14 -23 -16 -23 -30 -7 -8 10 -24 29 -36 42 -20 22 -21 26 -8 51 16 30 19 70 9 98 -8 19 -55 45 -83 45 -12 0 -26 11 -35 29 -30 57 -147 82 -197 42 -22 -17 -28 -17 -49 -5 -37 20 -128 17 -179 -6 l-43 -20 -28 30 c-16 17 -44 37 -64 45 -43 18 -128 19 -179 1z m152 -36 c18 -5 48 -21 66 -35 32 -24 33 -26 19 -53 -7 -15 -14 -33 -14 -39 0 -17 0 -17 -56 15 -43 24 -60 27 -134 27 -47 0 -98 -4 -114 -9 l-29 -9 19 26 c49 66 160 101 243 77z m528 -39 c22 -11 44 -29 48 -40 3 -12 18 -24 33 -27 15 -4 35 -14 45 -22 21 -19 23 -81 2 -108 -21 -28 -18 -44 10 -44 28 0 45 -24 37 -53 -4 -16 -1 -18 17 -12 12 4 28 2 36 -5 11 -9 19 -4 39 29 30 47 52 61 96 61 36 0 70 -16 88 -41 9 -14 20 -17 42 -13 69 14 110 -27 110 -111 0 -31 3 -35 25 -35 14 0 39 -13 57 -29 27 -24 32 -36 36 -89 3 -49 8 -63 23 -67 40 -13 45 -58 11 -97 -25 -30 -42 -22 -42 20 0 134 -124 266 -271 288 -24 4 -52 13 -61 21 -33 30 -105 16 -155 -29 -18 -17 -22 -17 -30 -5 -10 18 -46 37 -71 37 -16 0 -18 6 -14 53 3 44 1 55 -17 71 -15 13 -21 31 -21 59 0 47 -30 87 -67 87 -29 0 -29 -7 0 -34 14 -13 27 -40 31 -66 4 -24 14 -49 24 -56 16 -12 20 -57 10 -129 -2 -15 3 -21 22 -23 53 -6 70 -13 86 -38 16 -24 16 -26 -8 -52 -55 -58 -73 -110 -73 -207 0 -99 15 -140 76 -210 86 -98 245 -131 356 -74 47 24 46 24 29 -3 -8 -13 -17 -41 -21 -63 l-6 -40 -59 0 c-63 0 -112 -25 -119 -60 -3 -16 1 -15 35 6 28 17 55 24 103 25 l66 3 11 43 c6 24 17 53 24 65 17 26 80 63 109 63 32 0 76 -25 99 -57 l20 -28 36 18 c49 23 63 22 82 -8 9 -14 26 -25 39 -25 25 0 44 -19 61 -59 7 -18 18 -25 39 -26 15 0 30 -6 33 -13 3 -9 -3 -11 -21 -7 -43 11 -155 -31 -135 -50 4 -4 30 -2 58 4 73 16 123 1 153 -44 12 -19 36 -39 52 -45 57 -19 84 -110 51 -170 -12 -21 -12 -27 5 -49 24 -29 27 -93 4 -85 -20 8 -19 3 7 -50 21 -44 21 -45 3 -92 l-18 -46 32 -25 c36 -28 38 -46 12 -123 -14 -40 -27 -59 -47 -70 -16 -9 -48 -29 -72 -44 -51 -35 -115 -39 -158 -11 -27 17 -27 17 -45 -6 -10 -13 -19 -27 -19 -31 0 -4 -13 -14 -29 -22 -26 -14 -35 -13 -112 12 l-84 27 -3 43 c-3 38 -5 42 -31 42 -46 0 -128 29 -161 56 -39 33 -56 67 -65 125 -7 45 -6 47 25 57 46 17 28 34 -28 27 -46 -6 -49 -5 -101 44 -52 47 -54 51 -43 77 7 14 10 41 6 58 -4 26 0 39 20 64 33 38 16 53 -19 18 -18 -18 -25 -36 -25 -64 0 -21 -7 -47 -15 -58 -22 -29 -19 -73 8 -94 12 -10 38 -32 57 -48 19 -16 47 -32 61 -35 21 -6 25 -11 21 -35 -10 -73 46 -169 114 -194 38 -14 39 -15 18 -43 -8 -11 -26 -56 -40 -100 -23 -73 -36 -94 -56 -95 -5 0 -8 26 -8 58 0 83 -24 144 -81 206 -81 89 -195 123 -304 92 -54 -16 -58 -16 -70 1 -13 17 -15 16 -43 -10 -80 -76 -201 -24 -174 76 11 37 7 46 -22 63 -14 7 -20 22 -20 45 -1 33 -2 34 -41 31 -36 -2 -89 19 -75 31 3 2 25 18 51 35 54 36 96 94 119 163 12 36 27 56 48 70 34 20 45 48 40 100 -5 51 -32 45 -39 -8 -3 -24 -8 -45 -11 -49 -13 -12 -28 8 -28 35 0 68 -111 211 -177 227 l-24 7 34 28 c44 36 71 92 63 130 -3 16 -2 29 3 29 4 0 20 11 35 25 19 17 26 34 26 60 0 19 -4 35 -10 35 -5 0 -10 -11 -10 -25 0 -29 -40 -75 -65 -75 -11 0 -15 -10 -15 -39 0 -51 -36 -103 -82 -118 -29 -10 -47 -9 -87 1 -47 12 -52 11 -68 -7 -14 -15 -27 -18 -60 -14 -37 4 -43 2 -43 -15 0 -23 -44 -66 -73 -70 -11 -2 -23 -9 -25 -17 -3 -10 1 -12 17 -8 26 7 26 6 -3 -38 -62 -91 -71 -209 -24 -305 21 -43 23 -53 12 -78 -6 -16 -19 -32 -29 -36 -35 -13 -92 -6 -120 16 -24 19 -31 20 -59 10 -44 -16 -77 -15 -103 3 -18 13 -22 13 -33 0 -29 -35 55 -73 120 -55 30 8 44 6 75 -10 22 -11 52 -20 67 -20 42 0 94 25 113 53 l16 25 49 -33 c28 -19 75 -39 105 -46 30 -7 55 -14 55 -16 0 -23 -123 -233 -137 -233 -15 0 -71 31 -86 48 -17 18 -17 25 -7 56 11 35 12 36 67 36 49 0 59 4 89 34 38 38 42 51 18 60 -10 4 -26 -5 -45 -25 -26 -28 -34 -31 -81 -29 -75 3 -75 4 -82 -35 -4 -19 -17 -47 -30 -62 -20 -22 -31 -27 -73 -27 -28 0 -71 8 -97 18 -38 15 -53 16 -72 7 -36 -16 -116 -14 -142 4 -12 9 -33 36 -48 60 -14 25 -30 45 -34 45 -18 0 -68 51 -74 75 -5 18 0 35 18 58 53 71 70 118 70 197 1 66 -3 84 -31 140 -29 59 -30 66 -17 91 7 15 23 31 34 34 12 4 28 24 36 46 12 28 25 42 50 51 19 6 34 17 34 24 0 7 5 14 12 16 8 3 3 21 -15 58 -32 64 -34 94 -7 138 l20 33 -25 37 c-33 48 -32 74 6 117 25 28 30 41 25 65 -8 43 10 75 54 95 32 14 40 24 49 61 16 62 37 58 43 -9 21 -256 344 -370 528 -187 67 68 93 140 88 240 -5 79 -25 131 -73 189 l-27 31 22 35 c42 67 158 103 234 71 36 -15 39 -15 63 4 32 25 76 25 130 1z m-538 -104 c161 -75 206 -289 88 -424 -133 -150 -374 -115 -456 67 -28 61 -28 159 0 220 64 143 226 203 368 137z m-377 -3 c4 -3 0 -17 -8 -32 -8 -15 -14 -35 -14 -46 0 -41 -23 -96 -40 -96 -29 0 -67 -38 -74 -74 -5 -25 -14 -37 -37 -47 -40 -16 -69 -63 -69 -113 0 -26 -8 -47 -25 -68 -30 -35 -34 -96 -8 -138 14 -24 15 -34 5 -55 -19 -42 -14 -108 12 -157 l24 -45 -34 -12 c-24 -9 -38 -23 -50 -51 -10 -22 -23 -40 -29 -40 -13 0 -51 -34 -57 -50 -2 -6 -33 5 -76 27 -64 33 -82 37 -145 38 -57 0 -84 -6 -128 -26 -158 -74 -229 -258 -157 -411 15 -32 23 -58 18 -58 -15 0 -50 52 -50 73 0 12 -12 38 -26 58 -28 41 -27 86 2 110 9 7 14 31 14 65 0 46 3 56 25 70 30 20 32 34 4 34 -53 0 -85 -53 -69 -111 8 -27 6 -36 -15 -61 -35 -42 -33 -86 5 -123 22 -21 30 -38 30 -62 0 -44 38 -83 80 -83 19 0 50 -14 81 -35 100 -68 216 -81 312 -34 40 19 42 19 52 2 6 -10 33 -42 62 -73 28 -30 67 -71 85 -91 46 -50 101 -66 171 -50 45 11 59 11 104 -4 50 -16 119 -17 153 -2 11 5 31 -11 67 -52 52 -59 53 -61 68 -160 19 -125 19 -189 0 -266 -26 -107 -30 -215 -10 -278 27 -85 60 -118 164 -161 50 -21 100 -45 111 -54 19 -17 19 -18 1 -57 -39 -86 -119 -119 -181 -75 l-28 20 -16 -25 c-18 -27 -78 -47 -114 -38 -13 3 -28 16 -32 29 -7 19 -17 24 -43 24 -35 0 -62 15 -69 40 -3 10 -18 15 -41 15 -32 0 -37 -3 -37 -23 0 -32 -39 -68 -84 -76 -34 -6 -42 -4 -67 20 -36 34 -43 57 -28 85 6 13 71 84 144 160 137 140 173 194 196 285 7 27 23 62 35 77 26 31 48 101 40 123 -9 24 -35 15 -42 -13 -12 -57 -28 -84 -55 -98 -49 -26 -56 -20 -62 44 -10 110 -76 199 -185 249 -47 21 -64 24 -136 20 -152 -8 -246 -88 -292 -246 -3 -10 -8 -10 -26 -1 -33 17 -39 29 -32 74 3 26 0 50 -9 69 -20 37 -13 53 34 77 39 20 50 42 26 52 -21 8 -89 -35 -107 -65 -13 -23 -13 -32 -1 -60 7 -18 13 -57 12 -85 -2 -45 2 -57 24 -79 19 -19 25 -33 21 -50 -10 -37 19 -94 54 -107 16 -6 30 -16 30 -22 1 -20 61 -89 106 -121 25 -18 68 -38 95 -45 27 -7 49 -18 49 -24 0 -20 -56 -99 -94 -133 -45 -40 -48 -82 -11 -132 30 -40 33 -64 8 -56 -13 4 -23 -4 -38 -32 -22 -41 -54 -51 -106 -33 -22 8 -38 6 -66 -5 -46 -20 -102 -6 -131 31 -15 19 -29 25 -58 25 -41 0 -74 23 -74 52 0 23 -1 23 -50 -3 -54 -28 -120 -22 -159 15 -15 14 -42 29 -60 32 -22 5 -39 17 -50 35 -11 20 -24 29 -42 29 -37 0 -67 28 -83 75 -8 22 -13 42 -10 44 2 2 20 -11 41 -29 60 -53 117 -74 203 -75 70 0 77 -2 99 -29 22 -26 29 -28 75 -23 35 3 58 0 73 -10 26 -17 57 -12 93 16 21 16 22 21 11 35 -12 15 -16 15 -37 1 -31 -20 -43 -19 -69 5 -21 20 -23 20 -53 3 -24 -14 -36 -15 -49 -7 -28 17 -26 30 7 44 45 18 125 112 144 166 20 61 21 157 0 217 -36 107 -157 196 -272 200 -56 2 -62 4 -62 23 0 17 -8 23 -39 28 -51 8 -85 47 -76 88 5 22 1 32 -21 52 -26 21 -27 26 -16 50 9 21 9 38 1 72 -15 60 -6 118 26 159 35 46 60 59 120 60 44 0 50 3 53 23 2 16 10 22 27 22 13 0 27 -5 31 -11 9 -16 85 -49 112 -49 34 0 26 18 -15 35 -58 24 -103 73 -103 110 0 25 -9 39 -40 64 -32 25 -40 38 -40 64 0 18 9 43 19 56 19 24 18 25 -4 60 -35 53 -39 84 -19 126 19 41 77 85 112 85 17 0 27 9 37 34 15 36 49 66 75 66 8 0 28 -7 44 -15 27 -14 30 -14 52 10 30 32 59 32 89 -1 l25 -27 11 32 c7 20 20 33 35 37 23 6 35 34 15 34 -5 0 -23 12 -40 26 -44 36 -44 93 0 136 30 30 30 31 11 52 -47 52 -54 103 -22 167 21 40 71 79 102 79 10 0 20 10 24 24 16 65 102 90 150 45 l24 -23 16 22 c8 12 22 22 31 22 12 0 14 8 9 38 -13 84 31 149 95 140 28 -4 33 -1 49 37 23 55 63 85 110 85 20 0 39 -3 42 -6z m1248 -291 c-8 -3 -30 -12 -47 -19 -18 -7 -33 -11 -33 -9 0 9 56 34 75 34 14 0 16 -2 5 -6z m162 -49 c151 -51 225 -233 154 -377 -49 -101 -131 -152 -246 -152 -58 0 -84 5 -116 22 -105 56 -154 133 -154 245 0 39 7 85 15 105 58 138 207 205 347 157z m461 -284 c15 -16 27 -37 27 -45 0 -10 10 -15 30 -15 31 0 41 -8 91 -74 34 -46 35 -55 10 -104 -11 -23 -17 -50 -14 -72 4 -27 0 -40 -16 -54 -21 -19 -21 -19 -21 5 -1 38 -31 70 -68 71 -18 1 -32 5 -32 9 0 4 -7 15 -16 23 -19 19 -60 20 -94 2 -23 -13 -26 -12 -42 14 -26 44 -72 63 -130 57 l-48 -6 24 32 c14 18 33 58 43 89 18 59 44 77 57 41 6 -13 14 -9 48 26 38 40 44 43 82 38 29 -4 49 -15 69 -37z m-1463 -300 c0 -5 -5 -10 -11 -10 -5 0 -7 5 -4 10 3 6 8 10 11 10 2 0 4 -4 4 -10z m-95 -30 c-3 -5 -10 -10 -16 -10 -5 0 -9 5 -9 10 0 6 7 10 16 10 8 0 12 -4 9 -10z m248 -41 c164 -83 206 -293 84 -426 -179 -195 -496 -61 -475 201 3 34 15 80 26 103 28 54 104 120 161 138 59 19 148 12 204 -16z m-1091 -19 c58 -21 123 -81 154 -140 26 -49 26 -181 0 -230 -25 -49 -84 -108 -131 -133 -54 -29 -183 -31 -235 -3 -175 92 -212 306 -75 442 81 82 181 104 287 64z m2857 -512 c6 -7 35 -13 62 -13 41 0 55 -5 70 -24 23 -28 25 -74 4 -91 -25 -20 -17 -30 23 -30 47 0 62 -14 62 -57 0 -23 5 -33 15 -33 27 0 55 -38 55 -75 0 -39 -22 -91 -42 -97 -9 -3 -8 -11 5 -31 36 -55 13 -143 -44 -173 -28 -14 -34 -14 -70 0 -40 16 -55 5 -18 -14 29 -16 59 -70 59 -106 0 -20 9 -39 25 -54 36 -33 32 -69 -10 -110 -21 -20 -35 -44 -35 -58 0 -34 -15 -58 -55 -82 -41 -25 -38 -40 10 -40 34 0 45 -13 45 -54 0 -12 14 -35 30 -51 46 -44 35 -87 -32 -129 -24 -16 -25 -20 -16 -47 34 -99 -68 -182 -167 -137 -21 10 -31 9 -55 -5 -29 -18 -90 -21 -125 -8 -12 5 -34 1 -60 -10 -68 -31 -119 -22 -161 29 l-21 25 -31 -23 c-19 -14 -50 -25 -81 -28 -46 -4 -53 -2 -81 27 -29 28 -37 31 -95 31 -70 0 -75 5 -75 84 0 35 -2 38 -22 31 -30 -10 -69 -10 -89 -1 -12 5 -19 -1 -29 -23 -16 -41 -45 -48 -81 -22 -35 26 -35 26 -42 1 -7 -26 -36 -37 -49 -19 -5 8 -7 50 -5 94 6 103 32 164 115 269 35 45 78 105 95 135 24 42 39 57 76 73 53 22 96 60 118 103 13 25 15 55 9 191 -5 113 -4 164 4 169 7 4 9 -2 4 -18 -3 -14 -3 -34 0 -44 9 -28 59 -53 108 -53 23 0 52 -7 62 -15 33 -25 66 -18 108 25 39 38 41 39 68 25 54 -28 121 -14 164 34 11 12 31 21 46 21 15 0 40 10 55 21 22 18 26 27 21 53 -3 19 0 38 9 50 23 30 19 91 -7 116 -12 11 -25 20 -30 20 -4 0 2 16 14 35 15 26 19 46 15 75 -4 31 -1 40 12 43 31 9 47 7 60 -5z m-1787 -43 c10 -13 37 -30 59 -36 21 -7 39 -18 39 -26 0 -7 10 -23 22 -35 16 -16 21 -32 19 -59 -3 -44 20 -93 52 -111 12 -7 46 -15 75 -18 l53 -5 -26 -35 c-56 -75 -71 -221 -31 -298 15 -30 15 -32 -3 -41 -20 -11 -32 -3 -45 33 -5 14 -12 17 -31 12 -29 -7 -65 8 -65 29 0 7 -14 25 -32 38 -31 25 -32 26 -19 65 13 39 9 62 -10 62 -5 0 -19 -20 -31 -44 -26 -54 -19 -90 22 -111 17 -9 30 -20 30 -26 0 -18 49 -59 71 -59 12 0 33 -12 46 -26 19 -21 31 -25 56 -21 36 5 65 -6 121 -45 44 -32 123 -58 173 -58 l34 0 -19 -27 c-10 -16 -31 -46 -46 -69 -32 -49 -82 -89 -92 -73 -12 20 -94 51 -128 48 -20 -2 -46 6 -70 21 -29 17 -61 25 -125 31 -130 11 -148 17 -156 48 -3 14 -19 42 -34 61 -28 36 -29 37 -24 150 4 86 1 134 -12 190 -35 155 -33 176 23 297 28 59 54 120 58 136 8 34 20 34 46 2z m-83 -32 c-29 -69 -41 -76 -16 -9 12 30 25 56 29 56 4 0 -2 -21 -13 -47z m756 -226 c63 -32 98 -68 127 -132 85 -187 -68 -401 -273 -382 -109 10 -214 92 -240 191 -15 55 -7 152 16 201 66 135 235 191 370 122z m-868 -30 c1 -29 9 -82 18 -117 21 -80 35 -312 20 -322 -7 -5 -6 -13 2 -25 7 -10 26 -40 43 -68 l29 -50 -37 -20 -37 -20 87 -3 c75 -2 86 -5 81 -19 -5 -13 -3 -14 17 -3 26 14 128 9 172 -8 l26 -11 -34 -36 c-19 -20 -34 -42 -34 -48 0 -6 14 5 30 25 65 79 141 73 240 -18 51 -48 130 -156 130 -179 0 -3 -15 3 -34 14 -52 33 -114 37 -169 13 -52 -23 -65 -47 -19 -35 47 12 118 7 180 -12 l61 -18 31 -84 c45 -127 47 -149 12 -204 -26 -41 -109 -119 -126 -119 -3 0 -6 7 -6 15 0 19 -58 85 -76 85 -10 0 -5 -17 16 -59 17 -32 30 -61 30 -65 0 -4 -35 -22 -77 -41 -43 -20 -97 -55 -124 -80 -27 -25 -53 -45 -58 -45 -5 0 -19 13 -30 29 -27 38 -98 70 -171 78 -65 6 -86 -10 -27 -22 80 -17 214 -100 180 -112 -7 -3 -21 -19 -32 -37 -30 -47 -102 -71 -216 -69 -79 1 -87 -1 -70 -13 66 -49 177 -42 238 14 15 14 27 22 27 16 0 -5 8 6 16 24 23 45 34 40 22 -10 -11 -47 5 -240 26 -313 l12 -39 -41 -21 c-45 -23 -92 -84 -101 -132 -8 -43 5 -42 34 3 13 19 50 52 83 74 l60 39 82 -51 c45 -27 91 -58 103 -69 11 -10 33 -19 50 -19 16 0 46 -13 68 -30 22 -17 47 -30 57 -30 28 0 143 -38 164 -55 18 -14 -7 -15 -272 -13 -160 2 -294 6 -298 9 -9 10 32 110 60 149 31 42 32 54 3 39 -55 -28 -108 -96 -108 -139 0 -30 -11 -25 -65 30 l-50 51 3 79 c4 81 -13 216 -28 225 -5 3 -12 0 -15 -5 -5 -8 -13 -6 -25 5 -28 25 -82 30 -124 10 -20 -10 -36 -21 -36 -26 0 -4 26 -7 58 -7 31 1 74 -4 95 -11 l39 -13 -4 -127 c-3 -114 -6 -131 -31 -178 -30 -58 -55 -78 -107 -88 -32 -6 -36 -3 -48 23 -10 24 -47 52 -69 52 -7 0 0 -24 21 -73 l17 -38 -43 -19 c-45 -21 -69 -25 -67 -12 4 27 -5 48 -36 79 -19 19 -35 36 -35 38 0 1 17 5 39 9 21 3 49 15 62 26 l24 20 -28 -10 c-53 -19 -57 -10 -13 30 24 22 54 61 68 87 19 39 30 49 58 55 19 4 50 3 68 -2 24 -6 32 -5 29 3 -7 23 -58 51 -92 51 -32 0 -35 3 -35 28 0 45 -13 33 -49 -45 -32 -70 -33 -71 -42 -43 -4 15 -15 36 -24 46 -14 15 -15 27 -6 76 6 33 13 75 16 95 5 32 10 37 45 48 35 10 87 57 76 69 -3 2 -25 -5 -49 -17 -24 -11 -48 -21 -54 -21 -15 0 -23 25 -23 71 0 31 -7 48 -30 72 -16 18 -30 35 -30 38 0 22 45 128 66 156 14 18 24 38 22 43 -6 20 -81 -55 -102 -102 -21 -46 -23 -48 -38 -31 -16 18 -14 27 49 172 14 32 -58 -36 -76 -71 l-19 -39 -20 33 c-11 18 -25 50 -32 71 -9 30 -23 44 -66 68 -58 33 -59 43 -11 64 29 12 34 10 96 -33 108 -73 141 -84 256 -83 55 0 106 -3 112 -7 9 -6 0 -18 -31 -39 -46 -32 -88 -95 -101 -148 -6 -26 3 -20 64 46 39 42 86 86 106 98 32 19 35 19 35 3 0 -10 -9 -46 -21 -80 -19 -56 -27 -66 -74 -97 -51 -32 -83 -70 -71 -82 3 -3 8 2 12 11 4 9 32 30 64 46 74 37 90 59 124 164 19 59 34 89 48 97 26 14 78 16 132 5 35 -7 38 -6 27 8 -7 8 -28 20 -48 27 -33 11 -34 12 -15 25 53 37 177 50 255 28 9 -3 17 -1 17 5 0 5 -23 18 -51 29 l-52 19 29 20 c16 11 38 24 49 28 17 8 15 10 -13 13 -20 2 -32 8 -29 15 13 39 146 72 228 57 59 -11 61 -5 8 20 -62 28 -140 26 -206 -4 l-51 -24 -27 39 c-32 49 -127 112 -300 199 -124 62 -131 67 -154 112 -28 59 -31 174 -7 286 21 94 20 152 -3 285 -12 72 -25 118 -39 137 l-22 29 37 -16 c36 -14 38 -14 53 6 8 11 15 20 15 21 1 0 1 -24 2 -53z m1236 -203 c-1 -86 -4 -166 -7 -178 -7 -30 -52 -70 -115 -103 -44 -22 -62 -40 -91 -88 -20 -33 -64 -97 -97 -142 -59 -79 -84 -135 -99 -216 l-7 -39 -18 41 c-22 49 -71 122 -116 172 l-33 37 35 27 36 27 34 -26 c18 -14 36 -26 39 -26 15 0 4 31 -21 61 -23 27 -24 30 -6 21 12 -7 37 -31 57 -54 25 -30 36 -38 36 -25 0 31 -27 83 -55 105 -31 25 -27 39 24 76 l34 25 36 -25 c39 -26 52 -18 31 22 -12 22 -9 28 46 87 l59 64 35 -14 c19 -7 42 -20 50 -28 22 -20 31 -19 23 3 -9 26 -55 72 -72 72 -13 0 -13 3 2 17 11 11 33 18 57 18 46 0 51 7 15 23 l-26 12 19 37 c11 21 29 68 41 106 16 47 28 67 39 67 15 0 17 -16 15 -156z m-1727 46 c95 -41 158 -140 157 -250 0 -77 -17 -122 -70 -180 -53 -60 -121 -90 -203 -90 -254 0 -367 309 -175 478 26 23 51 42 54 42 3 1 29 7 56 15 58 16 121 11 181 -15z m-1019 -108 l38 -8 -40 -14 c-53 -17 -118 -63 -150 -105 -34 -44 -65 -126 -65 -171 0 -32 -2 -35 -16 -23 -49 40 -52 106 -8 154 16 17 24 38 24 61 0 55 24 89 82 118 47 24 54 25 75 11 12 -8 40 -19 60 -23z m226 -80 c157 -88 191 -289 70 -423 -48 -53 -103 -80 -175 -86 -73 -7 -130 9 -190 52 -68 50 -100 110 -106 201 -4 68 -2 80 27 138 70 143 236 195 374 118z m369 -87 c2 -19 0 -35 -4 -35 -4 0 -8 16 -8 35 0 19 2 35 4 35 2 0 6 -16 8 -35z m647 -123 c-26 -54 -58 -92 -165 -197 -132 -129 -184 -193 -184 -224 0 -9 33 -55 74 -102 l73 -85 -18 -23 c-11 -13 -19 -30 -19 -39 0 -24 -106 83 -137 138 -14 25 -41 71 -60 103 l-34 57 45 52 c50 57 76 104 76 137 0 12 6 21 15 21 24 0 20 -73 -5 -95 -38 -34 -20 -37 38 -5 156 88 268 196 304 294 12 33 24 54 26 47 2 -7 -11 -42 -29 -79z m-29 39 c-11 -22 -25 -43 -31 -46 -6 -4 -4 7 5 23 9 17 16 38 16 47 0 8 7 15 15 15 13 0 12 -6 -5 -39z m-1400 -211 c-1 -3 -10 6 -20 19 -13 15 -20 37 -19 65 l0 41 19 -60 c11 -33 20 -62 20 -65z m1205 5 c-27 -24 -53 -44 -57 -45 -5 0 -8 11 -8 24 0 19 10 27 53 44 28 11 54 20 57 21 3 0 -17 -19 -45 -44z m784 -220 c80 -47 140 -115 133 -152 -6 -37 -50 -83 -79 -83 -35 0 -94 -27 -128 -59 -16 -15 -45 -34 -63 -41 -18 -7 -37 -21 -43 -31 -12 -23 -44 -24 -92 -4 -22 9 -68 15 -119 15 -66 0 -93 5 -133 24 -50 23 -134 84 -210 150 -41 36 -41 38 17 50 35 8 68 43 68 73 0 31 33 31 48 -1 10 -23 66 -45 79 -32 3 3 13 -9 22 -27 30 -59 115 -62 171 -5 29 28 32 29 49 14 24 -22 89 -20 127 3 34 21 68 70 79 114 4 15 9 27 11 27 1 0 30 -16 63 -35z m-575 -1104 c-5 -5 -49 -14 -99 -21 -208 -26 -405 -80 -475 -130 -41 -29 -62 -72 -51 -103 20 -52 110 -104 233 -135 71 -18 73 -19 60 -40 -20 -30 -301 68 -363 127 -44 43 -50 75 -19 114 62 78 312 157 607 191 110 13 124 12 107 -3z m1008 -11 c241 -36 421 -95 489 -159 84 -80 26 -153 -175 -221 -367 -124 -1115 -153 -1596 -62 -43 9 -44 9 -17 17 30 8 50 7 287 -20 175 -20 587 -23 770 -6 411 39 670 125 670 222 0 42 -9 57 -54 88 -84 58 -260 105 -500 135 -65 8 -124 20 -130 26 -13 15 64 8 256 -20z m-899 -22 l19 -26 -26 -35 c-15 -20 -43 -47 -62 -62 -30 -23 -38 -25 -72 -16 -50 14 -102 -1 -142 -40 -16 -17 -30 -35 -30 -40 0 -10 -156 -11 -183 0 -14 5 -6 12 39 30 31 13 92 44 134 68 43 24 94 47 114 50 32 5 40 2 71 -32 27 -30 36 -35 40 -23 3 8 0 31 -8 49 -14 33 -14 35 22 72 40 42 55 43 84 5z m-167 -17 c-3 -4 -24 -11 -48 -15 -24 -4 -82 -31 -137 -64 -106 -64 -169 -92 -206 -92 -67 0 -13 -53 72 -70 31 -7 79 -9 106 -6 54 8 54 7 5 -55 l-28 -37 -76 19 c-141 37 -234 91 -234 138 0 10 15 32 34 49 54 47 177 88 371 122 115 21 148 24 141 11z m1129 -22 c253 -51 377 -123 332 -193 -36 -54 -226 -118 -447 -150 -318 -46 -825 -46 -1098 0 l-33 5 43 39 c61 55 73 57 125 20 62 -45 105 -48 184 -15 35 15 92 38 127 50 85 32 106 47 138 101 l27 45 45 -52 c71 -81 97 -89 296 -89 160 0 445 16 456 26 9 10 -18 40 -61 66 -24 15 -71 33 -104 40 -33 6 -80 24 -104 40 -25 15 -59 28 -75 29 -23 0 -39 10 -61 36 l-30 36 70 -7 c39 -4 115 -16 170 -27z m-1050 -142 c0 -1 10 -23 23 -50 37 -81 29 -94 -34 -52 -57 39 -95 34 -152 -19 -45 -43 -99 -72 -110 -62 -2 3 9 21 27 41 17 20 40 54 51 76 31 60 72 81 140 73 30 -3 55 -7 55 -7z m-735 -243 c0 -83 -4 -134 -10 -134 -6 0 -10 54 -10 141 0 91 4 138 10 134 6 -4 10 -62 10 -141z m2247 -66 c-1 -40 -3 -8 -3 72 0 80 2 112 3 73 2 -40 2 -106 0 -145z m-42 -107 c-13 -14 -15 0 -15 130 0 103 4 149 13 158 10 10 13 -16 15 -130 2 -117 0 -145 -13 -158z m-2171 283 c14 -5 16 -28 16 -150 0 -79 -4 -144 -9 -144 -26 0 -32 33 -30 164 2 75 4 136 5 136 1 0 9 -3 18 -6z m64 -36 c14 -14 18 -298 4 -298 -26 0 -32 30 -32 167 0 79 4 143 8 143 4 0 13 -5 20 -12z m2072 -133 c0 -134 -1 -145 -20 -155 -20 -10 -20 -8 -20 138 0 82 3 152 7 155 3 4 12 7 20 7 10 0 13 -31 13 -145z m-2002 109 c22 -6 22 -9 22 -155 0 -82 -2 -149 -4 -149 -3 0 -16 4 -30 10 l-26 10 0 145 c0 80 3 145 8 145 4 0 17 -3 30 -6z m1932 -139 l0 -145 -26 -10 c-14 -6 -27 -10 -30 -10 -2 0 -4 65 -4 145 0 127 2 145 18 154 40 24 42 17 42 -134z m-1822 105 c9 0 12 -37 12 -150 0 -86 -4 -150 -9 -150 -5 0 -21 4 -35 10 l-26 10 0 146 0 146 23 -6 c12 -3 28 -6 35 -6z m1742 -134 l0 -144 -31 -11 c-18 -6 -36 -11 -40 -11 -5 0 -9 65 -9 145 0 142 1 146 23 155 57 23 57 23 57 -134z m-1647 110 l27 -6 0 -149 0 -149 -36 8 c-21 5 -40 13 -43 18 -3 6 -5 73 -3 150 2 104 6 140 15 137 7 -2 24 -6 40 -9z m1547 -135 l0 -149 -27 -6 c-16 -4 -36 -9 -45 -12 -17 -5 -18 7 -18 145 l0 151 28 6 c15 3 32 7 37 9 6 2 13 4 18 4 4 1 7 -66 7 -148z m-1970 120 c0 -13 -15 -26 -45 -41 -48 -23 -95 -72 -95 -98 0 -121 323 -215 835 -242 192 -11 240 -10 745 15 63 4 112 4 109 1 -10 -11 -260 -36 -449 -46 -564 -30 -1163 63 -1307 202 -57 55 -41 105 50 162 22 13 136 62 155 66 1 0 2 -9 2 -19z m549 -7 l31 -6 0 -150 0 -149 -37 6 c-21 4 -44 8 -50 10 -10 3 -13 42 -13 150 0 161 -4 153 69 139z m1311 -139 l0 -145 -27 -6 c-16 -3 -36 -8 -45 -11 -17 -4 -18 8 -18 146 0 164 -3 157 63 160 l27 1 0 -145z m-132 -167 c-7 -4 -31 -8 -54 -8 l-41 0 4 138 c2 75 6 142 8 149 2 6 23 13 47 15 l43 3 3 -144 c2 -109 -1 -146 -10 -153z m-1039 286 l31 -6 0 -148 0 -148 -47 5 c-27 3 -53 6 -60 8 -8 3 -12 49 -12 149 l-2 146 29 0 c16 0 44 -3 61 -6z m183 -28 c9 -14 7 -261 -2 -276 -6 -9 -24 -11 -64 -6 l-56 7 0 149 0 149 58 -6 c31 -3 60 -11 64 -17z m738 -126 l0 -150 -24 0 c-13 0 -38 -3 -55 -6 l-31 -6 0 150 0 151 28 4 c15 2 39 5 55 6 l27 1 0 -150z m-622 130 l42 0 0 -150 c0 -169 7 -156 -84 -144 l-46 7 0 150 0 149 23 -6 c12 -3 41 -6 65 -6z m482 -139 l0 -149 -56 -4 c-31 -1 -58 -1 -60 1 -2 2 -4 69 -4 147 l0 143 28 4 c15 2 42 5 60 6 l32 1 0 -149z m-1466 104 c4 -19 18 -48 32 -65 61 -72 289 -149 547 -185 70 -10 126 -20 124 -22 -6 -5 -242 16 -362 33 -203 29 -377 84 -432 136 -25 24 -30 56 -10 80 12 16 76 58 88 58 4 0 10 -16 13 -35z m1176 -115 l0 -150 -65 0 -65 0 0 150 0 150 65 0 65 0 0 -150z m148 3 l-3 -148 -62 -3 -63 -3 0 151 0 150 65 0 66 0 -3 -147z m-1561 -235 c-1 -40 -3 -8 -3 72 0 80 2 112 3 73 2 -40 2 -106 0 -145z m53 167 c9 -10 10 -41 6 -107 -3 -51 -6 -112 -6 -135 0 -34 -3 -41 -15 -37 -12 5 -15 31 -15 150 0 79 4 144 9 144 5 0 14 -7 21 -15z m44 -21 c14 -5 16 -29 16 -155 0 -147 0 -149 -20 -139 -19 10 -20 21 -20 155 0 80 2 145 4 145 2 0 11 -3 20 -6z m2166 -99 c0 -58 -3 -105 -7 -105 -9 0 -16 178 -8 198 11 29 15 5 15 -93z m-30 -23 c0 -112 -7 -142 -32 -142 -10 0 -11 244 -1 253 3 4 12 7 20 7 10 0 13 -26 13 -118z m-57 41 c13 -131 9 -197 -12 -210 -10 -7 -22 -9 -25 -6 -3 4 -6 66 -6 139 0 128 3 139 31 143 3 1 9 -29 12 -66z m-1999 47 l26 -10 0 -145 c0 -149 -2 -155 -41 -135 -17 10 -19 23 -19 155 0 80 2 145 4 145 3 0 16 -4 30 -10z m1936 -140 l0 -140 -26 -10 c-14 -6 -27 -10 -30 -10 -7 0 -5 286 3 293 3 4 17 7 30 7 l23 0 0 -140z m-1836 110 l26 -10 0 -146 0 -146 -32 7 c-18 4 -36 9 -40 12 -5 2 -8 69 -8 149 0 156 0 155 54 134z m1756 -134 l0 -144 -31 -11 c-18 -6 -36 -11 -40 -11 -5 0 -9 65 -9 145 0 142 1 146 23 155 57 23 57 23 57 -134z m-1647 108 l27 -6 0 -150 c0 -138 -1 -149 -17 -144 -10 3 -30 8 -45 12 l-28 6 0 150 c0 138 1 149 18 144 9 -3 29 -8 45 -12z m1547 -139 l0 -144 -42 -8 -43 -9 -3 145 c-1 79 0 146 2 149 8 7 70 19 79 15 4 -2 7 -69 7 -148z m-1427 119 l37 -7 0 -149 0 -149 -47 7 c-27 3 -52 9 -56 11 -4 3 -7 70 -6 149 1 160 -4 150 72 138z m1305 -141 l-3 -148 -37 -6 -38 -6 0 148 c0 157 0 157 53 158 l28 1 -3 -147z m-120 -165 c-7 -4 -32 -8 -55 -8 l-43 0 0 145 c0 161 -5 150 75 157 l30 3 3 -144 c2 -109 -1 -146 -10 -153z m-1045 286 l37 -7 0 -147 0 -148 -47 5 c-27 3 -54 6 -60 8 -10 3 -13 42 -13 150 0 163 -6 153 83 139z m1854 -70 c205 -98 128 -213 -201 -298 -412 -108 -1121 -114 -1581 -15 -97 21 -242 66 -249 78 -6 10 147 -14 214 -33 81 -23 249 -53 380 -67 172 -20 699 -17 870 4 384 48 580 123 580 221 0 28 -8 41 -41 69 -22 19 -68 45 -102 58 -68 25 -89 37 -82 49 7 12 128 -26 212 -66z m-1704 56 l37 0 0 -151 0 -152 -57 7 c-31 4 -58 8 -59 9 -3 2 -7 239 -5 276 1 19 5 22 24 17 12 -3 39 -6 60 -6z m777 -140 l0 -150 -32 0 c-18 0 -43 -3 -55 -6 l-23 -6 0 150 c0 168 -5 157 78 161 l32 1 0 -150z m-592 125 c5 -5 2 -288 -3 -293 -2 -3 -29 -1 -60 3 l-55 6 0 148 0 148 58 -5 c31 -2 59 -6 60 -7z m452 -135 l0 -150 -44 0 c-24 0 -51 -3 -60 -6 -14 -5 -16 11 -16 144 l0 151 28 4 c15 2 42 5 60 6 l32 1 0 -150z m-300 -10 l0 -150 -60 0 -60 0 0 150 0 150 60 0 60 0 0 -150z m150 0 l0 -150 -60 0 -60 0 0 150 0 150 60 0 60 0 0 -150z m1120 77 c39 -19 70 -43 79 -59 14 -25 14 -29 -5 -55 -57 -76 -298 -143 -629 -173 -168 -15 -603 -12 -768 5 -259 28 -255 32 33 32 489 2 865 60 1063 165 64 34 107 79 107 110 0 17 4 19 28 13 15 -3 56 -21 92 -38z m207 -369 c-1 -40 -3 -8 -3 72 0 80 2 112 3 73 2 -40 2 -106 0 -145z m-2247 56 c0 -87 -4 -133 -10 -129 -6 4 -10 60 -10 136 0 79 4 129 10 129 6 0 10 -52 10 -136z m50 -42 c0 -144 0 -145 -20 -127 -11 10 -18 26 -15 39 2 11 4 74 4 140 1 104 3 117 16 106 12 -10 15 -41 15 -158z m2170 24 c0 -115 -3 -146 -15 -156 -13 -11 -15 5 -15 137 0 82 3 153 7 156 19 19 23 -5 23 -137z m-2110 -53 c0 -79 -2 -143 -4 -143 -2 0 -11 3 -20 6 -14 5 -16 28 -16 155 0 147 0 149 20 137 18 -12 20 -24 20 -155z m2060 24 c0 -137 -6 -167 -32 -167 -4 0 -8 67 -8 149 0 146 2 157 33 160 4 1 7 -63 7 -142z m-1980 -59 l0 -149 -30 16 -30 16 0 138 c0 76 3 140 6 144 3 3 17 1 30 -5 24 -11 24 -13 24 -160z m1910 23 c0 -127 -2 -150 -16 -155 -44 -17 -45 -13 -43 137 1 134 2 143 22 154 12 7 25 12 30 13 4 0 7 -67 7 -149z m-1813 99 c2 0 3 -67 3 -149 l0 -149 -35 11 -35 10 0 148 0 148 32 -10 c18 -5 34 -9 35 -9z m1733 -129 c0 -146 0 -149 -22 -155 -59 -15 -58 -19 -58 139 l0 144 33 10 c17 5 35 10 40 10 4 1 7 -66 7 -148z m-1637 109 c15 0 17 -14 17 -151 l0 -151 -22 6 c-13 3 -31 6 -40 6 -16 0 -18 14 -18 151 l0 151 23 -6 c12 -3 30 -6 40 -6z m1537 -134 c0 -80 -3 -147 -7 -149 -5 -2 -25 -7 -46 -11 l-38 -7 3 148 3 147 25 7 c62 17 60 22 60 -135z m-1402 108 c9 -2 12 -41 12 -149 0 -161 4 -153 -69 -139 l-31 7 0 148 0 148 38 -5 c20 -3 43 -7 50 -10z m1292 -128 c0 -80 -3 -147 -8 -150 -4 -2 -24 -7 -45 -11 l-37 -7 0 150 0 151 28 4 c67 10 62 21 62 -137z m-1172 114 l32 0 0 -150 0 -150 -24 0 c-13 0 -38 3 -55 6 l-31 7 0 149 0 150 23 -6 c12 -3 37 -6 55 -6z m1062 -134 c0 -80 -3 -147 -7 -149 -5 -3 -29 -8 -55 -11 l-48 -7 0 150 0 150 28 4 c15 2 39 5 55 6 l27 1 0 -144z m-145 -164 c-2 -3 -27 -7 -55 -10 l-50 -5 0 151 0 151 53 3 52 3 3 -144 c1 -79 0 -146 -3 -149z m-741 282 c14 -5 16 -28 16 -150 l0 -144 -65 0 -65 0 0 150 0 150 49 0 c27 0 56 -3 65 -6z m166 -154 l0 -150 -65 0 -65 0 0 150 0 150 65 0 65 0 0 -150z m121 140 l29 0 0 -145 0 -145 -65 0 -65 0 0 143 c0 79 3 147 7 151 5 4 21 5 37 2 16 -3 41 -6 57 -6z m179 -140 l0 -150 -65 0 -65 0 0 143 c0 79 3 147 7 150 3 4 33 7 65 7 l58 0 0 -150z m140 6 c0 -161 3 -156 -76 -156 l-44 0 0 150 0 150 60 0 60 0 0 -144z m-1455 73 c5 -14 1 -25 -13 -34 -10 -8 -25 -28 -32 -44 -39 -95 139 -183 470 -231 554 -81 1306 -25 1520 113 36 23 148 62 156 54 12 -12 -88 -80 -155 -106 -469 -180 -1563 -169 -1971 20 -155 72 -171 148 -47 219 62 36 64 36 72 9z m59 -64 c222 -169 1057 -246 1680 -154 71 10 131 17 133 15 6 -6 -142 -46 -242 -65 -201 -39 -301 -46 -650 -46 -360 0 -455 7 -672 50 -202 41 -333 103 -333 158 0 17 35 67 47 67 3 0 19 -11 37 -25z m-202 -258 c-2 -73 -6 -134 -8 -136 -2 -2 -4 60 -4 139 0 79 3 140 7 136 5 -4 6 -67 5 -139z m2255 -69 c-1 -40 -3 -8 -3 72 0 80 2 112 3 73 2 -40 2 -106 0 -145z m-2209 170 c8 -8 12 -56 12 -151 0 -126 -2 -138 -17 -135 -16 3 -18 20 -21 151 -1 81 1 147 6 147 4 0 13 -5 20 -12z m2182 -127 c0 -104 -3 -141 -14 -150 -11 -9 -14 4 -19 72 -13 163 -7 217 25 217 4 0 8 -62 8 -139z m-2110 -56 c0 -80 -3 -145 -6 -145 -3 0 -14 5 -25 10 -21 12 -24 64 -12 217 5 76 7 81 24 72 17 -9 19 -24 19 -154z m2060 20 c0 -133 -2 -145 -19 -155 -19 -10 -20 -5 -23 136 -2 121 0 147 12 155 8 4 18 9 23 9 4 0 7 -65 7 -145z m-2006 105 l26 -10 0 -146 0 -146 -22 6 c-13 3 -26 6 -30 6 -8 0 -11 300 -4 300 3 0 16 -4 30 -10z m1936 -135 c0 -132 -2 -145 -19 -155 -39 -20 -41 -14 -41 135 0 142 1 146 23 155 12 5 25 9 30 9 4 1 7 -64 7 -144z m-1817 98 c4 -2 7 -69 7 -149 0 -156 0 -155 -54 -134 l-26 10 0 146 0 146 33 -7 c17 -4 35 -9 40 -12z m1737 -128 l0 -145 -26 -10 c-55 -21 -55 -22 -52 137 l3 147 25 7 c51 14 50 18 50 -136z m-1651 109 l31 -6 0 -150 0 -149 -37 7 c-21 4 -41 9 -45 11 -5 2 -8 69 -8 149 0 156 -3 150 59 138z m1551 -139 l0 -144 -37 -10 c-21 -6 -41 -11 -45 -11 -5 0 -8 67 -8 149 0 164 -3 157 63 160 l27 1 0 -145z m-1397 108 c4 -2 7 -70 7 -150 l0 -146 -37 7 c-21 3 -44 6 -50 6 -10 0 -13 37 -13 151 l0 151 43 -7 c23 -4 45 -9 50 -12z m1278 -100 c0 -65 2 -131 3 -146 2 -33 3 -32 -46 -41 l-38 -7 0 150 c0 147 0 150 23 154 60 12 57 17 58 -110z m-1153 87 c22 0 22 -1 22 -151 l0 -151 -52 7 c-29 4 -56 9 -60 12 -5 2 -8 70 -8 150 l0 146 38 -7 c20 -3 47 -6 60 -6z m1042 -139 l0 -149 -47 -4 c-27 -3 -51 -3 -55 -1 -5 2 -8 69 -8 148 0 161 -5 150 78 154 l32 1 0 -149z m-130 -10 l0 -148 -31 -7 c-17 -3 -42 -6 -55 -6 l-24 0 0 149 0 150 38 4 c20 2 45 4 55 5 15 2 17 -11 17 -147z m-740 -11 l0 -150 -44 0 c-79 0 -76 -5 -76 156 l0 144 60 0 60 0 0 -150z m600 1 l0 -148 -31 -7 c-17 -3 -44 -6 -60 -6 l-29 0 0 149 0 150 53 4 c28 2 55 4 60 5 4 1 7 -65 7 -147z m-442 -13 l3 -148 -66 0 -65 0 0 150 0 151 63 -3 62 -3 3 -147z m142 2 l0 -150 -60 0 -60 0 0 150 0 150 60 0 60 0 0 -150z m152 29 c2 -67 2 -134 0 -150 -4 -28 -6 -29 -63 -29 l-59 0 0 150 0 150 59 0 59 0 4 -121z m1068 43 c71 -68 48 -118 -83 -182 -121 -58 -295 -99 -562 -132 -164 -21 -768 -17 -940 5 -271 35 -476 89 -574 151 -23 15 -41 29 -39 32 5 5 137 -34 235 -69 181 -65 421 -98 781 -104 415 -8 689 20 932 95 146 46 209 104 183 172 -13 35 -7 70 13 70 7 0 31 -17 54 -38z m-86 -49 c9 -23 -22 -63 -69 -90 -86 -48 -267 -92 -502 -119 -197 -24 -656 -24 -858 0 -161 18 -281 40 -175 31 354 -30 645 -30 924 1 275 30 521 94 618 162 51 36 54 37 62 15z m-2125 -241 c0 -80 -4 -130 -10 -127 -5 4 -9 70 -9 148 0 95 3 137 10 127 5 -8 9 -75 9 -148z m2248 -54 c-1 -40 -3 -8 -3 72 0 80 2 112 3 73 2 -40 2 -106 0 -145z m-42 -117 c-13 -14 -15 0 -15 136 0 112 3 152 13 156 9 3 13 -30 15 -137 2 -115 0 -142 -13 -155z m-2157 136 c1 -81 -1 -147 -6 -147 -26 0 -32 30 -32 163 0 126 2 138 18 135 15 -3 17 -20 20 -151z m46 117 c14 -5 16 -28 16 -151 0 -132 -1 -144 -17 -141 -16 3 -18 20 -21 151 -1 81 -1 147 2 147 2 0 11 -3 20 -6z m2076 -138 c0 -122 -2 -145 -16 -150 -9 -3 -18 -6 -20 -6 -7 0 -4 286 3 293 3 4 12 7 20 7 10 0 13 -31 13 -144z m-70 -24 c0 -147 0 -149 -24 -160 -13 -6 -27 -8 -30 -5 -3 4 -6 70 -6 149 l0 142 28 10 c15 6 28 11 30 11 1 1 2 -66 2 -147z m-1926 132 c14 -5 16 -28 16 -155 l0 -148 -30 10 -30 11 0 144 c0 151 1 154 44 138z m116 -186 l0 -149 -22 7 c-50 15 -49 13 -49 162 0 78 1 144 1 146 0 2 16 -1 35 -7 l35 -10 0 -149z m1730 23 c0 -141 -1 -150 -20 -155 -11 -3 -29 -9 -40 -12 -19 -5 -20 -1 -20 144 l0 149 33 11 c17 5 35 10 40 11 4 1 7 -66 7 -148z m-1632 103 c9 -2 12 -41 12 -149 0 -144 0 -145 -22 -144 -60 2 -61 4 -60 150 0 74 1 140 1 147 1 11 23 10 69 -4z m1532 -129 l0 -145 -26 -10 c-14 -6 -34 -10 -45 -10 -19 0 -19 7 -17 147 l3 148 30 6 c17 4 36 7 43 8 9 1 12 -34 12 -144z m-1397 105 c4 0 7 -68 7 -150 l0 -150 -25 5 c-14 3 -36 7 -50 10 l-25 5 0 149 0 148 43 -8 c23 -4 45 -8 50 -9z m1287 -134 c0 -141 0 -144 -22 -150 -13 -3 -33 -6 -46 -6 l-23 0 3 148 3 147 35 6 c19 3 38 3 43 1 4 -2 7 -68 7 -146z m-1142 -28 l3 -148 -38 0 c-86 0 -83 -5 -83 154 0 79 2 145 4 147 3 3 29 2 58 -1 l53 -5 3 -147z m1022 13 l0 -148 -31 -7 c-17 -3 -42 -6 -56 -6 l-24 0 3 148 3 147 40 6 c22 3 46 7 53 8 9 1 12 -35 12 -148z m-907 123 l37 -7 0 -149 0 -150 -22 6 c-13 3 -40 6 -60 6 l-38 0 0 150 c0 169 -6 158 83 144z m775 -141 l-3 -148 -52 -3 -53 -3 0 144 c0 79 3 147 7 150 3 4 28 7 55 7 l49 0 -3 -147z m-609 131 l31 -6 0 -144 0 -144 -65 0 -65 0 0 150 0 150 34 0 c18 0 48 -3 65 -6z m471 -144 l0 -150 -60 0 -60 0 0 150 0 150 60 0 60 0 0 -150z m-292 -7 l-3 -148 -60 0 -60 0 -3 148 -3 147 66 0 66 0 -3 -147z m152 3 l0 -143 -37 -7 c-21 -3 -50 -6 -65 -6 l-28 0 0 150 0 150 65 0 65 0 0 -144z"/>
<path d="M3698 6484 c-48 -26 -36 -43 29 -41 57 2 58 2 69 -33 9 -27 18 -36 40 -40 25 -4 30 -10 34 -45 4 -32 9 -40 25 -40 17 0 20 6 18 44 -2 44 -25 81 -49 81 -8 0 -20 13 -29 29 -30 58 -82 75 -137 45z"/>
<path d="M2947 6282 c-33 -35 -36 -99 -8 -155 18 -36 18 -40 3 -67 -15 -26 -15 -31 0 -62 15 -33 15 -35 -8 -55 -24 -22 -32 -53 -14 -53 6 0 10 7 10 15 0 9 16 23 35 32 40 19 40 19 21 64 -9 22 -11 41 -5 56 6 16 3 38 -11 74 -25 63 -25 95 0 136 25 42 11 50 -23 15z"/>
<path d="M3274 6180 c-12 -5 -25 -13 -28 -19 -4 -5 -22 -7 -41 -4 -30 5 -39 1 -70 -30 -32 -32 -47 -77 -26 -77 5 0 20 15 35 34 20 26 35 35 68 40 138 19 132 19 152 -3 12 -13 31 -21 53 -21 26 0 36 -6 45 -25 13 -29 38 -33 38 -6 0 34 -39 73 -71 69 -18 -2 -36 5 -51 20 -28 25 -74 35 -104 22z"/>
<path d="M4773 5863 c-23 -9 -14 -23 15 -23 15 0 41 -9 59 -20 31 -18 36 -31 46 -109 2 -11 15 -14 59 -12 46 2 60 -1 77 -18 35 -35 28 -51 -16 -39 -88 24 -213 -21 -287 -103 -53 -59 -76 -121 -76 -204 0 -83 23 -145 76 -204 66 -73 139 -106 234 -105 122 0 222 61 278 168 23 44 27 63 27 141 0 75 -4 97 -23 133 -30 57 -83 114 -126 137 -20 11 -36 25 -36 32 0 53 -67 100 -126 88 l-34 -6 0 46 c0 63 -40 105 -97 104 -21 0 -44 -3 -50 -6z m317 -289 c93 -51 140 -132 140 -241 -1 -110 -52 -196 -146 -243 -182 -90 -399 43 -397 244 2 210 219 340 403 240z"/>
<path d="M4905 5581 c-115 -28 -194 -128 -195 -244 0 -100 44 -174 131 -222 109 -59 247 -29 317 69 78 110 70 227 -23 323 -67 69 -146 94 -230 74z m143 -46 c51 -22 81 -52 108 -110 108 -229 -196 -422 -364 -231 -92 105 -54 280 72 337 50 23 134 24 184 4z"/>
<path d="M4935 5496 c-17 -7 -43 -27 -57 -45 -15 -17 -34 -31 -43 -31 -24 0 -30 -29 -9 -45 18 -14 18 -14 -2 -15 -29 0 -41 -40 -14 -47 11 -3 21 -18 25 -39 8 -44 57 -101 94 -109 33 -7 88 13 114 42 15 18 16 22 3 33 -13 10 -20 8 -42 -9 -37 -29 -78 -27 -103 5 -17 22 -29 64 -18 64 1 0 18 -4 37 -10 25 -7 36 -7 42 3 16 25 7 35 -37 41 -25 4 -45 12 -45 18 0 6 18 7 50 3 46 -6 50 -5 50 14 0 14 -8 22 -27 27 -59 12 -60 14 -30 40 40 34 80 32 110 -7 17 -21 30 -30 41 -26 24 9 20 23 -16 62 -38 40 -80 51 -123 31z"/>
<path d="M3255 6836 c-190 -90 -194 -350 -6 -448 161 -84 360 35 361 216 0 69 -18 120 -59 167 -73 86 -196 113 -296 65z m222 -42 c60 -37 103 -113 103 -185 0 -69 -43 -146 -103 -183 -91 -56 -191 -44 -268 33 -77 76 -89 177 -31 271 61 99 195 128 299 64z"/>
<path d="M3325 6762 c-16 -11 -36 -26 -44 -35 -7 -10 -24 -17 -37 -17 -17 0 -24 -6 -24 -20 0 -11 5 -20 10 -20 6 0 10 -7 10 -16 0 -10 -5 -14 -15 -10 -23 8 -32 -24 -12 -39 10 -7 17 -22 17 -34 0 -62 58 -131 112 -131 32 0 78 20 96 43 10 11 9 17 -2 26 -11 9 -22 7 -50 -10 -31 -18 -41 -20 -62 -10 -23 10 -61 77 -50 88 2 3 21 0 42 -7 30 -10 38 -10 45 1 14 22 11 27 -28 40 -49 15 -54 19 -48 29 3 5 24 2 47 -6 33 -11 43 -12 50 -2 12 20 5 31 -30 42 -42 15 -42 27 0 50 34 19 37 19 62 2 15 -9 31 -28 36 -41 7 -17 14 -22 29 -18 25 6 25 6 5 49 -29 61 -101 81 -159 46z"/>
<path d="M2040 5227 c-14 -7 -29 -26 -34 -44 -7 -21 -20 -36 -38 -44 -48 -20 -64 -82 -33 -127 14 -19 14 -24 -1 -47 -23 -35 -23 -98 0 -124 24 -26 73 -44 83 -28 3 6 1 13 -5 15 -6 2 -22 12 -36 23 -30 24 -33 53 -11 106 13 30 13 43 4 65 -16 39 -4 75 31 93 16 8 33 27 36 40 8 30 32 45 73 45 38 0 40 17 5 30 -33 13 -44 12 -74 -3z"/>
<path d="M4363 6501 c-48 -12 -115 -55 -141 -90 -74 -101 -68 -228 15 -321 152 -170 432 -64 433 163 0 99 -44 174 -128 220 -55 30 -127 41 -179 28z m157 -51 c71 -37 120 -113 120 -187 0 -130 -92 -222 -219 -223 -187 -1 -287 211 -169 355 67 80 175 102 268 55z"/>
<path d="M4447 6420 c-4 -15 -14 -20 -37 -20 -36 0 -80 -38 -80 -69 0 -11 14 -36 31 -56 24 -27 30 -41 25 -61 -7 -25 -7 -25 -24 -6 -22 26 -72 38 -72 18 0 -27 23 -65 47 -82 19 -12 23 -21 19 -39 -8 -31 31 -44 43 -13 5 15 18 21 47 24 27 2 46 11 62 29 32 38 28 68 -14 104 -29 26 -35 37 -30 57 6 22 8 23 22 9 8 -8 26 -15 40 -15 35 0 31 32 -7 64 -19 16 -29 32 -25 41 3 8 -3 19 -14 25 -25 14 -27 13 -33 -10z m-24 -91 c-4 -13 -9 -17 -15 -11 -11 11 -3 32 12 32 4 0 6 -9 3 -21z m31 -146 c-14 -23 -35 -29 -29 -9 3 9 7 24 10 33 4 13 8 14 18 4 8 -8 9 -16 1 -28z"/>
<path d="M3434 5836 c-154 -71 -189 -279 -68 -400 51 -50 102 -70 179 -70 82 0 134 22 185 80 44 51 61 95 61 163 1 189 -185 307 -357 227z m201 -25 c49 -22 99 -77 115 -126 19 -57 9 -143 -23 -192 -88 -138 -303 -129 -377 17 -58 116 -9 253 110 304 48 21 127 19 175 -3z"/>
<path d="M3500 5783 c-32 -12 -68 -57 -80 -99 -8 -26 -19 -44 -27 -44 -9 0 -13 -8 -11 -22 2 -13 9 -23 17 -23 8 0 16 -6 19 -12 2 -7 -4 -13 -13 -13 -12 0 -15 -5 -11 -16 3 -9 6 -18 6 -20 0 -2 9 -4 19 -4 11 0 29 -13 40 -29 12 -16 41 -37 66 -46 42 -16 46 -16 82 1 45 23 85 90 62 105 -23 14 -29 11 -41 -21 -18 -53 -78 -67 -116 -27 -29 31 -28 34 11 42 44 10 46 12 40 36 -3 11 -11 18 -19 15 -7 -3 -29 -8 -48 -12 -53 -9 -45 11 9 25 27 7 45 17 45 26 0 22 -17 27 -55 16 -31 -8 -35 -7 -35 8 0 10 9 30 21 45 24 30 63 34 97 10 18 -13 26 -13 38 -4 19 16 2 38 -43 57 -34 14 -48 15 -73 6z"/>
<path d="M2408 5826 c-165 -45 -237 -247 -138 -385 94 -130 268 -144 380 -32 35 35 53 63 64 102 20 65 20 82 1 145 -38 128 -178 206 -307 170z m186 -56 c161 -109 116 -358 -73 -399 -88 -19 -175 16 -227 90 -37 54 -46 156 -19 213 22 46 69 94 110 113 50 22 164 13 209 -17z"/>
<path d="M2420 5730 c0 -5 -9 -10 -20 -10 -23 0 -27 -25 -5 -34 12 -4 15 -26 15 -106 0 -82 -3 -100 -15 -100 -8 0 -15 -9 -15 -20 0 -11 7 -20 15 -20 8 0 24 -6 35 -12 17 -11 22 -10 30 2 8 12 13 13 29 3 16 -10 23 -10 35 2 8 8 19 15 25 15 16 0 41 42 41 70 0 14 -7 35 -15 47 -12 18 -13 27 -3 48 9 21 8 32 -5 60 -9 19 -21 35 -27 35 -5 0 -10 7 -10 15 0 8 -9 15 -20 15 -11 0 -20 -4 -20 -10 0 -5 -7 -10 -15 -10 -8 0 -15 5 -15 10 0 6 -9 10 -20 10 -11 0 -20 -4 -20 -10z m115 -71 c13 -40 -3 -59 -51 -59 l-44 0 0 38 c0 21 2 41 4 43 3 3 23 3 45 1 29 -3 42 -10 46 -23z m12 -125 c11 -30 -11 -49 -58 -49 -42 0 -44 1 -47 33 l-3 32 51 0 c38 0 52 -4 57 -16z"/>
<path d="M5530 5051 c0 -5 10 -15 21 -23 18 -11 22 -25 24 -78 3 -56 0 -69 -20 -90 -12 -14 -25 -38 -29 -53 -5 -21 -18 -33 -52 -47 -48 -21 -51 -40 -6 -40 43 0 92 35 92 66 0 16 12 37 31 55 28 26 30 33 25 67 -4 20 -6 54 -6 76 1 45 -22 76 -57 76 -12 0 -23 -4 -23 -9z"/>
<path d="M5050 4768 c-72 -28 -141 -99 -170 -175 -27 -70 -24 -187 4 -242 15 -28 15 -35 4 -42 -21 -14 -35 -10 -41 11 -4 15 -14 20 -36 20 -24 0 -34 6 -43 25 -6 14 -16 25 -23 25 -26 0 -34 22 -19 52 16 30 12 48 -11 48 -17 0 -45 -50 -45 -79 0 -11 13 -30 29 -43 16 -13 34 -33 40 -45 6 -13 24 -26 39 -29 15 -4 35 -14 45 -22 10 -9 42 -17 75 -19 40 -2 67 -11 92 -28 93 -64 231 -73 327 -21 58 32 82 31 100 -3 6 -14 26 -29 44 -35 65 -21 60 -108 -7 -138 -17 -8 -24 -18 -21 -29 12 -47 -55 -77 -99 -44 -24 18 -34 19 -34 1 0 -23 50 -56 85 -56 44 0 85 34 85 70 0 19 7 33 20 40 26 14 50 61 50 98 0 36 -31 78 -64 86 -15 4 -26 14 -28 29 -2 12 -13 26 -25 32 -21 9 -21 10 10 20 17 5 36 20 42 32 6 11 25 35 43 51 32 30 40 63 22 92 -6 10 -4 20 8 33 32 36 8 127 -34 127 -22 0 -27 -20 -10 -39 21 -23 20 -44 -3 -65 -18 -16 -19 -15 -25 26 -31 195 -236 309 -426 236z m247 -47 c167 -86 194 -317 52 -445 -72 -65 -163 -84 -266 -55 -64 17 -153 105 -172 169 -71 239 167 444 386 331z m197 -328 c-23 -17 -25 -14 -17 31 l6 39 15 -28 c13 -26 13 -30 -4 -42z"/>
<path d="M5065 4706 c-91 -43 -145 -126 -145 -226 0 -183 190 -304 355 -226 128 59 182 216 117 342 -61 118 -207 167 -327 110z m190 -25 c170 -77 180 -308 16 -393 -71 -37 -131 -37 -202 0 -67 35 -110 98 -117 172 -15 162 157 288 303 221z"/>
<path d="M5103 4645 c-3 -9 -3 -18 0 -21 3 -3 -8 -18 -25 -33 -59 -53 -31 -131 47 -131 28 0 33 -4 38 -27 6 -34 2 -40 -17 -24 -14 12 -66 -1 -66 -16 1 -25 45 -53 84 -53 16 0 27 -7 31 -20 7 -21 14 -24 38 -14 9 3 13 13 10 25 -4 15 4 28 28 48 26 22 33 35 33 65 0 47 -21 67 -77 73 -37 4 -46 10 -49 28 -4 18 0 22 24 22 16 0 34 5 41 12 17 17 -26 51 -64 51 -19 0 -29 5 -29 15 0 20 -39 19 -47 0z m31 -124 c-9 -10 -26 18 -18 30 5 9 9 8 14 -7 4 -10 6 -21 4 -23z m101 -84 c0 -26 -20 -25 -23 2 -3 16 1 22 10 19 7 -3 13 -12 13 -21z"/>
<path d="M4599 4124 c-10 -12 -25 -15 -56 -11 -48 5 -57 -7 -17 -25 19 -9 33 -9 57 0 27 10 34 9 52 -8 12 -11 29 -20 37 -20 9 0 27 -19 40 -42 33 -60 66 -80 127 -80 57 0 124 35 136 71 5 18 12 20 49 15 36 -5 47 -2 72 19 39 34 26 43 -21 16 -36 -22 -39 -22 -66 -6 -28 15 -29 15 -49 -12 -25 -37 -77 -61 -128 -61 -32 0 -47 7 -71 30 -16 17 -32 39 -36 50 -4 12 -17 20 -38 22 -23 2 -35 10 -45 31 -15 31 -24 34 -43 11z"/>
<path d="M4127 5026 c-148 -40 -227 -206 -162 -344 55 -117 175 -174 297 -138 211 62 244 354 52 458 -61 32 -125 41 -187 24z m151 -42 c111 -46 163 -180 113 -290 -38 -84 -147 -144 -233 -127 -167 31 -239 213 -139 350 54 75 169 105 259 67z"/>
<path d="M4153 4941 c-5 -3 -12 -14 -16 -23 -7 -19 -27 -25 -27 -8 0 5 -7 7 -15 4 -8 -4 -15 -11 -15 -16 0 -6 -7 -16 -17 -23 -18 -13 -10 -35 13 -35 21 0 97 -169 83 -186 -17 -21 -2 -33 37 -31 22 2 40 10 46 20 5 11 16 16 26 13 22 -7 35 2 50 37 19 45 15 77 -17 106 -16 15 -32 41 -35 58 -4 17 -15 37 -24 45 -27 23 -79 46 -89 39z m61 -67 c25 -24 19 -52 -14 -69 -40 -21 -44 -20 -63 20 -16 35 -16 35 11 49 35 20 47 19 66 0z m70 -110 c11 -28 6 -43 -16 -58 -48 -29 -63 -28 -76 6 -6 17 -11 33 -9 34 1 1 16 9 32 17 39 21 61 21 69 1z"/>
<path d="M2740 4819 c-188 -85 -201 -341 -22 -446 40 -24 58 -28 122 -28 83 0 133 20 182 72 67 71 88 195 47 280 -26 54 -96 116 -147 131 -59 18 -131 14 -182 -9z m174 -20 c54 -15 119 -83 135 -142 48 -170 -101 -322 -269 -277 -84 23 -160 122 -160 210 0 146 146 250 294 209z"/>
<path d="M2860 4757 c0 -9 -14 -17 -36 -21 -76 -15 -96 -76 -42 -129 31 -30 34 -43 22 -77 -5 -11 -8 -10 -15 8 -4 12 -18 23 -29 24 -11 0 -26 1 -32 2 -24 2 -8 -48 25 -78 21 -20 31 -37 29 -53 -3 -19 1 -23 22 -23 19 0 26 5 26 19 0 14 10 20 42 24 83 11 105 83 42 135 -32 26 -36 34 -30 59 7 24 9 25 17 10 13 -22 69 -24 69 -2 0 18 -43 65 -59 65 -6 0 -10 10 -8 22 1 17 -4 24 -20 26 -15 2 -23 -2 -23 -11z m-20 -92 c0 -8 -4 -15 -10 -15 -5 0 -10 7 -10 15 0 8 5 15 10 15 6 0 10 -7 10 -15z m40 -134 c0 -20 -17 -37 -27 -28 -7 8 7 47 18 47 5 0 9 -9 9 -19z"/>
<path d="M1981 4659 c-71 -13 -137 -65 -174 -134 -29 -54 -30 -164 -3 -218 94 -190 364 -191 452 -3 88 190 -69 393 -275 355z m137 -45 c186 -77 169 -354 -25 -410 -203 -59 -360 170 -234 343 54 75 169 105 259 67z"/>
<path d="M1997 4558 c-12 -18 -18 -20 -27 -11 -15 14 -40 6 -40 -13 0 -8 -7 -14 -15 -14 -22 0 -18 -31 4 -37 28 -7 88 -183 66 -195 -8 -5 -12 -14 -9 -21 6 -18 82 -16 93 2 5 8 16 11 28 7 14 -4 25 2 40 22 35 47 34 93 -3 127 -14 13 -23 29 -20 34 11 18 -22 81 -48 90 -13 6 -27 15 -31 20 -10 17 -21 13 -38 -11z m65 -55 c36 -32 17 -66 -41 -74 -20 -3 -26 2 -37 33 -12 36 -12 37 14 47 38 13 43 13 64 -6z m58 -118 c19 -23 3 -51 -40 -65 -46 -15 -48 -14 -56 28 -6 28 -4 32 27 41 48 13 55 13 69 -4z"/>
</g>
</svg>