<?xml version="1.0" standalone="no"?>
<!DOCTYPE svg PUBLIC "-//W3C//DTD SVG 20010904//EN" "http://www.w3.org/TR/2001/REC-SVG-20010904/DTD/svg10.dtd">
<svg xmlns="http://www.w3.org/2000/svg" version="1.0" width="1000" height="908" viewBox="0 0 1000.000000 908.000000" preserveAspectRatio="xMidYMid meet">

<g transform="translate(0.000000,908.000000) scale(0.100000,-0.100000)" fill="#303032" stroke="none">
<path d="M4925 8095 c-195 -30 -360 -85 -543 -180 -140 -73 -245 -150 -375 -275 -251 -241 -414 -536 -489 -883 -30 -140 -32 -471 -4 -622 154 -830 896 -1423 1730 -1381 625 31 1176 398 1441 959 218 463 218 977 -1 1443 -42 89 -102 185 -180 290 -242 324 -594 545 -1010 634 -129 28 -434 36 -569 15z m471 -340 c130 -23 236 -57 359 -118 402 -199 673 -568 741 -1012 21 -134 14 -344 -16 -480 -101 -459 -444 -840 -891 -989 -124 -41 -217 -57 -369 -63 -296 -11 -561 64 -810 230 -95 63 -291 260 -354 355 -155 235 -228 475 -228 752 0 169 18 279 67 427 155 462 556 811 1034 897 106 20 357 20 467 1z"/>
<path d="M5091 7418 c-48 -24 -78 -65 -87 -120 -6 -32 -10 -37 -43 -43 -165 -31 -333 -203 -370 -383 -34 -163 19 -341 134 -457 114 -113 199 -144 425 -153 152 -7 168 -9 199 -31 37 -27 70 -90 71 -136 0 -47 -40 -117 -80 -140 -32 -19 -57 -20 -341 -25 l-306 -5 -36 -25 c-43 -29 -77 -91 -77 -142 0 -55 39 -118 90 -145 39 -21 56 -23 185 -23 l143 0 6 -36 c10 -50 66 -109 119 -124 90 -25 184 31 207 122 11 44 13 46 73 64 110 33 228 129 289 234 62 106 79 265 43 389 -38 132 -148 257 -276 316 -77 35 -142 45 -288 45 -112 0 -130 3 -165 23 -56 32 -79 67 -84 131 -6 69 23 124 80 156 38 21 48 22 308 21 178 -1 284 2 315 10 123 31 173 182 88 271 -50 53 -69 58 -226 58 l-144 0 -12 40 c-33 110 -139 158 -240 108z"/>
<path d="M2059 7077 c-18 -12 -44 -38 -56 -56 l-23 -34 0 -472 0 -472 23 -34 c70 -105 206 -108 281 -6 20 27 21 43 26 395 l5 367 367 5 c352 5 368 6 395 26 102 75 99 211 -6 281 l-34 23 -472 0 -472 0 -34 -23z"/>
<path d="M6929 7077 c-105 -70 -108 -206 -6 -281 27 -20 43 -21 395 -26 l367 -5 5 -367 c5 -352 6 -368 26 -395 75 -102 211 -99 281 6 l23 34 0 472 0 472 -23 34 c-12 18 -38 44 -56 56 l-34 23 -472 0 -472 0 -34 -23z"/>
<path d="M2260 5575 c-311 -46 -586 -180 -814 -396 -286 -271 -456 -636 -472 -1014 -5 -123 -4 -132 18 -170 15 -26 39 -48 68 -63 l45 -22 716 2 715 3 37 25 c21 14 46 43 57 66 19 39 20 62 20 638 l0 599 38 -7 c135 -21 324 -99 452 -186 82 -56 217 -186 281 -270 69 -91 163 -285 194 -400 86 -331 26 -679 -168 -964 -53 -78 -184 -215 -267 -277 -93 -71 -286 -164 -402 -194 -312 -82 -634 -34 -914 135 -84 51 -106 60 -147 60 -52 0 -78 -10 -115 -44 -55 -49 -70 -138 -35 -199 57 -97 356 -245 605 -299 88 -19 133 -22 308 -22 174 0 220 3 307 22 297 65 540 198 759 416 218 219 352 462 416 759 30 137 32 455 5 590 -62 304 -200 562 -421 783 -244 243 -517 381 -851 429 -120 18 -318 18 -435 0z m50 -830 l0 -495 -495 0 c-465 0 -495 1 -495 18 0 34 49 198 83 280 50 117 151 263 248 360 119 116 239 198 379 257 64 27 228 74 263 75 16 0 17 -30 17 -495z"/>
<path d="M7127 5246 c-97 -35 -116 -83 -117 -287 l0 -155 -42 -21 c-24 -12 -61 -33 -84 -47 l-40 -25 -95 56 c-158 93 -185 105 -233 105 -51 0 -114 -31 -136 -65 -8 -12 -94 -159 -192 -327 -164 -281 -178 -308 -178 -353 0 -90 24 -116 200 -216 l125 -72 0 -95 1 -95 -116 -66 c-189 -108 -210 -131 -210 -226 0 -37 19 -76 141 -288 241 -415 238 -411 289 -437 69 -36 110 -26 266 63 71 41 134 75 138 75 4 0 43 -21 86 -46 l80 -46 0 -146 c0 -81 5 -163 10 -182 12 -45 65 -97 111 -110 45 -13 733 -13 780 0 19 5 47 22 62 37 48 51 57 89 57 252 l0 149 78 46 c43 25 83 46 87 46 5 0 69 -35 143 -77 119 -68 141 -77 187 -77 95 -1 104 9 317 374 l189 325 -3 57 c-6 81 -30 107 -188 198 l-135 78 -1 95 -2 96 133 76 c74 41 145 89 159 105 29 35 41 85 33 135 -6 35 -342 622 -380 663 -55 59 -137 70 -215 29 -26 -14 -89 -50 -141 -80 l-95 -56 -40 25 c-23 14 -60 35 -83 47 l-43 21 0 155 c0 167 -11 213 -58 254 -48 43 -80 46 -452 46 -274 0 -364 -3 -393 -13z m563 -456 c0 -187 15 -213 150 -270 41 -18 112 -57 158 -89 170 -115 182 -116 344 -23 59 34 111 62 116 62 9 0 176 -280 170 -285 -2 -1 -48 -28 -103 -59 -173 -99 -184 -120 -165 -286 11 -86 11 -125 1 -198 -7 -51 -10 -105 -6 -123 11 -50 60 -95 169 -156 55 -31 103 -58 105 -59 2 -2 -136 -248 -164 -292 -1 -1 -55 28 -120 65 -168 95 -176 95 -347 -22 -40 -28 -105 -64 -143 -80 -149 -62 -165 -88 -165 -275 l0 -130 -170 0 -170 0 0 128 c-1 176 -23 221 -130 262 -71 27 -147 69 -215 119 -122 90 -155 89 -324 -9 -57 -33 -105 -59 -106 -58 -28 43 -167 290 -164 292 2 1 47 27 99 56 172 96 189 125 169 282 -10 81 -10 120 0 203 12 96 11 106 -7 147 -24 53 -33 61 -157 133 -55 32 -102 59 -103 61 -6 4 159 284 168 284 4 0 55 -27 112 -60 162 -93 188 -92 323 5 50 36 129 81 177 101 140 59 158 90 158 279 l0 125 170 0 170 0 0 -130z"/>
<path d="M7440 4244 c-281 -55 -466 -311 -420 -583 40 -240 256 -421 500 -421 317 0 560 294 496 600 -21 99 -56 168 -122 240 -99 106 -208 158 -349 165 -44 2 -91 1 -105 -1z m166 -359 c48 -28 84 -91 84 -146 0 -41 -35 -105 -73 -133 -40 -30 -153 -30 -193 0 -48 35 -67 70 -71 126 -10 136 134 223 253 153z"/>
<path d="M1241 3640 c-104 -24 -157 -133 -113 -233 45 -102 176 -128 261 -51 129 116 22 322 -148 284z"/>
<path d="M4703 3055 c-172 -47 -313 -189 -358 -360 -9 -37 -15 -103 -15 -177 l0 -118 -195 0 c-215 0 -270 -8 -365 -53 -77 -36 -181 -136 -222 -213 -58 -109 -58 -101 -58 -909 0 -624 2 -750 15 -798 45 -175 187 -316 360 -362 89 -23 2181 -23 2270 0 129 34 261 138 319 253 57 112 56 102 56 907 0 808 0 800 -58 909 -41 77 -145 177 -222 213 -95 45 -150 53 -365 53 l-195 0 0 118 c0 192 -41 302 -154 410 -68 66 -136 105 -223 127 -79 21 -514 20 -590 0z m551 -344 c63 -39 78 -77 79 -199 l1 -107 -334 0 -334 0 1 107 c1 118 15 158 70 194 41 27 67 29 283 28 185 -2 202 -3 234 -23z m835 -672 c71 -43 83 -74 85 -220 l1 -89 -1175 0 -1175 0 1 89 c2 146 14 177 85 220 34 21 39 21 1089 21 1050 0 1055 0 1089 -21z m-1927 -763 c2 -97 6 -119 24 -143 36 -49 82 -73 136 -73 66 0 114 24 146 73 24 36 27 51 31 149 l3 108 498 0 498 0 3 -108 c4 -98 7 -113 31 -149 65 -99 209 -99 282 0 18 24 22 46 24 143 l4 114 166 0 167 0 -2 -427 c-1 -236 -4 -441 -7 -456 -8 -41 -41 -82 -80 -101 -31 -15 -133 -16 -1086 -16 -953 0 -1055 1 -1086 16 -39 19 -72 60 -80 101 -3 15 -6 220 -7 456 l-2 427 167 0 166 0 4 -114z"/>
<path d="M2080 2219 c-14 -5 -36 -20 -48 -32 -53 -49 -52 -42 -52 -543 0 -456 0 -467 21 -504 12 -21 38 -47 59 -59 37 -21 48 -21 507 -21 l470 0 34 23 c105 70 108 206 6 281 -27 20 -43 21 -395 26 l-367 5 -5 367 c-5 350 -6 368 -26 394 -35 48 -70 67 -126 71 -29 1 -64 -2 -78 -8z"/>
<path d="M7809 1891 c-42 -14 -79 -42 -97 -75 -14 -25 -18 -68 -22 -226 l-5 -195 -367 -5 c-352 -5 -368 -6 -395 -26 -102 -75 -99 -211 6 -281 l34 -23 470 0 c459 0 470 0 507 21 21 12 47 38 59 59 20 36 21 51 21 335 0 333 -2 347 -69 390 -40 27 -103 38 -142 26z"/>
</g>
</svg>