<?xml version="1.0" standalone="no"?>
<!DOCTYPE svg PUBLIC "-//W3C//DTD SVG 20010904//EN"
 "http://www.w3.org/TR/2001/REC-SVG-20010904/DTD/svg10.dtd">
<svg version="1.0" xmlns="http://www.w3.org/2000/svg"
 width="522.000000pt" height="478.000000pt" viewBox="0 0 522.000000 478.000000"
 preserveAspectRatio="xMidYMid meet">

<g transform="translate(0.000000,478.000000) scale(0.100000,-0.100000)"
fill="#303032" stroke="none">
<path d="M2500 4773 c-236 -32 -417 -119 -572 -276 -102 -103 -124 -132 -176
-227 -139 -259 -159 -531 -58 -801 54 -145 111 -233 217 -341 159 -159 304
-237 522 -278 l117 -23 0 -531 -1 -531 -25 30 c-14 17 -37 44 -51 60 -14 17
-51 58 -84 91 -32 34 -59 69 -59 78 0 35 -16 12 -47 -65 -21 -54 -27 -76 -16
-67 14 11 25 3 80 -57 35 -39 75 -86 89 -105 13 -19 44 -62 69 -95 l44 -60 0
-246 1 -246 -92 -17 c-139 -26 -174 -39 -357 -129 -73 -37 -284 -167 -318
-197 -7 -5 -27 -20 -46 -33 -36 -25 -109 -82 -172 -135 -22 -19 -57 -49 -78
-66 -69 -57 -191 -170 -314 -290 -99 -96 -123 -125 -123 -148 0 -18 8 -31 22
-40 18 -9 345 -14 1448 -20 1300 -6 1426 -6 1442 9 20 18 23 45 8 73 -15 27
-453 432 -591 545 -98 80 -136 110 -227 178 -100 75 -256 174 -337 214 -22 11
-66 25 -97 32 l-58 12 0 231 0 230 69 91 c61 81 121 154 172 207 9 10 22 19
30 22 18 6 -17 138 -37 138 -8 0 -14 -6 -14 -14 0 -8 -21 -36 -47 -62 -27 -27
-76 -80 -110 -119 l-62 -70 -1 552 0 552 38 7 c131 22 227 46 273 68 29 14 57
26 62 26 6 0 46 24 91 53 87 58 221 184 272 257 107 152 184 386 184 559 0 84
-21 203 -55 311 -64 203 -203 382 -397 514 -37 25 -70 46 -73 46 -3 0 -34 13
-69 30 -116 54 -360 91 -486 73z m224 -425 c3 -17 6 -46 6 -64 0 -28 6 -38 39
-58 115 -73 162 -226 70 -226 -26 0 -32 6 -50 48 -39 90 -79 112 -204 112 -97
0 -138 -20 -169 -84 -16 -34 -17 -44 -7 -91 7 -29 20 -60 29 -68 9 -8 51 -25
92 -37 204 -59 309 -114 339 -175 8 -17 18 -38 23 -47 4 -10 8 -44 8 -76 0
-47 -6 -67 -29 -104 -28 -44 -78 -89 -113 -101 -15 -5 -18 -18 -18 -70 0 -69
-10 -87 -50 -87 -32 0 -50 32 -50 91 l0 40 -37 -3 c-38 -3 -38 -3 -41 -53 -4
-56 -15 -75 -45 -75 -40 0 -57 28 -57 95 l0 61 -39 18 c-80 35 -137 135 -106
183 9 13 22 23 31 23 23 0 54 -19 54 -33 0 -29 25 -63 59 -81 26 -14 63 -21
134 -24 87 -4 104 -2 140 17 48 25 67 58 67 113 0 31 -8 47 -37 78 -39 42 -70
55 -268 115 -75 23 -97 34 -130 69 -40 42 -65 106 -65 164 2 82 49 173 106
202 40 21 44 28 42 80 -1 58 15 90 47 90 31 0 55 -35 55 -82 0 -32 4 -39 25
-44 36 -9 54 10 53 59 0 30 5 45 21 58 30 25 67 8 75 -33z"/>
<path d="M1415 2803 c-49 -5 -146 -25 -205 -40 -131 -35 -217 -60 -245 -73
-11 -5 -42 -16 -70 -25 -27 -9 -63 -22 -80 -30 -68 -30 -226 -95 -231 -95 -5
0 -72 -31 -297 -137 -54 -26 -96 -51 -94 -57 14 -47 629 -284 902 -348 22 -5
56 -13 75 -17 273 -67 502 -100 690 -101 100 0 160 5 194 15 51 16 146 71 146
85 0 14 -274 220 -293 220 -3 0 -32 15 -64 34 -66 39 -185 88 -283 118 -155
47 -215 57 -394 66 -130 7 -150 11 -163 28 -19 26 -13 56 17 72 19 10 55 12
147 7 108 -6 167 -14 318 -44 156 -32 391 -138 572 -259 67 -45 124 -82 127
-82 11 0 -7 64 -43 155 -29 74 -120 246 -156 295 -56 76 -140 148 -188 160
-23 6 -58 17 -77 25 -75 31 -191 42 -305 28z"/>
<path d="M3456 2729 c-141 -60 -233 -158 -331 -354 -76 -154 -122 -285 -99
-285 3 0 31 19 62 43 104 78 375 227 414 227 8 0 18 4 24 8 14 13 137 49 239
71 128 28 237 41 333 41 69 0 85 -3 102 -20 46 -46 11 -80 -86 -80 -145 0
-364 -38 -499 -87 -38 -14 -79 -27 -90 -31 -24 -7 -175 -83 -235 -118 -97 -57
-280 -197 -280 -213 0 -5 14 -19 31 -31 83 -59 238 -86 404 -69 244 24 511 74
735 139 41 11 89 25 105 30 207 59 542 188 709 272 l39 20 -54 34 c-30 18 -57
34 -61 34 -3 0 -54 23 -113 50 -59 28 -108 50 -110 50 -3 0 -28 11 -57 24 -99
45 -312 128 -433 168 -246 81 -389 108 -560 107 -109 -1 -126 -3 -189 -30z"/>
</g>
</svg>
