<?xml version="1.0" standalone="no"?>
<!DOCTYPE svg PUBLIC "-//W3C//DTD SVG 20010904//EN" "http://www.w3.org/TR/2001/REC-SVG-20010904/DTD/svg10.dtd">
<svg xmlns="http://www.w3.org/2000/svg" version="1.0" width="167" height="303" viewBox="0 0 167.000000 303.000000" preserveAspectRatio="xMidYMid meet">

<g transform="translate(0.000000,303.000000) scale(0.100000,-0.100000)" fill="#303032" stroke="none">
<path d="M1023 2986 c-33 -18 -79 -47 -101 -65 -42 -33 -82 -101 -82 -139 0 -26 -12 -28 -30 -6 -16 18 -136 89 -167 99 -23 6 -23 5 -23 -87 0 -51 5 -110 10 -130 22 -77 89 -128 168 -128 l39 0 -18 -67 c-9 -38 -20 -80 -23 -95 -6 -25 -11 -28 -50 -28 -52 0 -59 10 -60 91 -1 75 -35 120 -110 148 -62 23 -156 38 -156 25 0 -5 9 -45 20 -89 22 -87 40 -119 88 -151 l32 -22 -80 -4 c-71 -3 -83 -6 -107 -31 -25 -24 -28 -36 -32 -107 -4 -89 8 -131 43 -154 20 -13 22 -21 19 -75 -6 -94 -30 -138 -119 -217 -149 -132 -200 -188 -232 -255 -50 -104 -54 -158 -50 -690 3 -474 4 -485 26 -539 46 -114 127 -193 250 -242 56 -22 65 -23 491 -26 281 -2 458 1 504 8 182 28 313 153 347 330 13 70 13 970 0 1041 -5 30 -26 86 -45 126 -29 58 -52 86 -117 145 -163 146 -195 182 -212 239 -25 84 -21 132 14 167 29 29 30 34 30 117 0 55 -5 96 -14 114 -15 29 -53 51 -89 51 -19 0 -18 3 14 38 20 20 55 64 78 97 42 59 42 59 19 68 -13 5 -70 11 -128 14 -96 4 -109 3 -150 -19 -50 -26 -90 -78 -90 -117 0 -21 -10 -32 -52 -54 l-51 -29 6 45 c4 24 20 87 37 139 l30 95 44 5 c60 7 112 42 138 92 31 61 39 307 10 306 -4 0 -35 -15 -69 -34z m47 -103 c0 -43 -5 -96 -11 -118 -13 -45 -79 -115 -109 -115 -11 0 -20 1 -20 3 0 2 23 54 50 115 28 61 50 117 50 124 0 18 -60 -73 -106 -160 -35 -67 -39 -72 -47 -50 -16 43 -3 123 28 163 25 34 136 115 157 115 4 0 8 -35 8 -77z m-344 -92 c91 -53 131 -118 122 -197 -3 -28 -4 -28 -41 28 -21 31 -56 76 -78 100 l-40 43 22 -45 c12 -25 37 -69 56 -99 19 -29 32 -55 29 -58 -9 -10 -73 18 -95 41 -12 12 -26 38 -31 57 -12 40 -13 159 -2 159 4 0 30 -13 58 -29z m-201 -235 c28 -7 61 -19 73 -25 31 -16 62 -69 62 -104 l0 -29 -25 31 c-31 36 -124 106 -131 98 -3 -3 25 -37 61 -76 l67 -71 -34 0 c-38 0 -72 20 -90 53 -17 32 -47 137 -40 137 4 0 30 -6 57 -14z m722 -36 c23 0 22 -3 -24 -61 -62 -79 -111 -112 -166 -112 -23 0 -53 6 -66 13 -24 12 -22 14 50 40 83 30 172 71 166 76 -4 4 -106 -22 -185 -48 -35 -11 -65 -18 -67 -16 -2 2 4 18 15 35 37 61 98 85 194 78 32 -3 70 -5 83 -5z m-302 -168 c-3 -3 -15 -6 -27 -7 -20 -2 -20 -1 -3 11 17 13 43 9 30 -4z m-285 -2 c0 -5 -7 -10 -16 -10 -8 0 -12 5 -9 10 3 6 10 10 16 10 5 0 9 -4 9 -10z m558 -93 c16 -12 16 -129 0 -145 -14 -14 -774 -17 -796 -3 -9 5 -12 29 -10 82 l3 74 155 5 c215 8 632 -1 648 -13z m-58 -234 c3 -160 51 -253 193 -368 99 -81 139 -128 176 -205 l26 -55 0 -535 0 -535 -28 -57 c-35 -71 -110 -140 -182 -167 -52 -20 -78 -21 -528 -21 -458 -1 -475 -1 -529 20 -75 28 -149 98 -185 175 -24 52 -28 75 -31 174 -5 124 -2 131 53 131 59 -1 176 -75 206 -132 13 -25 8 -23 -37 13 -49 39 -127 79 -154 79 -27 0 -27 -46 0 -132 39 -128 137 -241 234 -271 57 -17 654 -16 751 1 128 24 219 80 277 171 15 25 28 48 28 52 0 4 -30 -9 -66 -28 -36 -19 -67 -33 -70 -31 -2 2 24 23 59 46 34 23 72 50 83 61 19 17 52 118 68 208 l5 32 -46 -35 c-72 -55 -108 -67 -198 -67 -61 1 -104 8 -180 32 -180 57 -285 61 -430 14 -59 -19 -165 -71 -217 -107 -55 -37 -46 -18 12 27 70 54 205 123 275 141 119 32 202 20 388 -53 84 -33 118 -41 169 -41 105 0 186 51 248 153 12 21 20 40 17 43 -2 3 -36 -24 -74 -59 -80 -73 -143 -103 -200 -94 -21 4 -88 31 -149 62 -104 52 -210 84 -276 85 -41 0 -48 24 -26 94 10 33 23 94 28 135 6 41 12 77 15 80 3 3 17 -8 32 -23 67 -72 145 -71 256 4 101 69 121 86 114 97 -3 5 -36 25 -73 43 -135 69 -254 47 -309 -58 -13 -26 -24 -42 -25 -37 -8 84 -13 129 -19 173 -8 50 -6 54 16 69 19 13 29 14 49 4 66 -30 160 1 216 70 37 46 108 159 108 172 0 4 -48 7 -107 7 -125 0 -175 -17 -216 -71 -28 -38 -38 -66 -39 -109 -1 -30 -23 -59 -35 -46 -4 4 -14 53 -24 109 l-16 102 41 39 c23 22 62 50 88 63 36 18 52 35 69 70 20 41 21 55 15 143 -3 54 -9 105 -12 114 -5 13 1 16 27 16 19 0 45 4 59 8 31 9 -256 18 -435 14 -154 -4 -154 -22 1 -22 l101 0 6 -222 c4 -160 11 -258 26 -346 l21 -122 -22 -35 c-13 -19 -26 -35 -29 -35 -4 0 -9 21 -13 47 -12 87 -73 147 -167 162 -55 9 -192 3 -187 -8 32 -68 90 -163 118 -192 20 -21 53 -42 78 -50 39 -11 48 -10 92 8 62 26 73 17 53 -45 -21 -63 -20 -203 0 -271 18 -59 16 -71 -14 -71 -15 0 -19 7 -19 30 0 66 -50 137 -117 166 -44 19 -213 31 -213 15 0 -24 83 -177 113 -209 37 -38 94 -56 153 -47 40 6 42 5 53 -26 6 -18 11 -33 11 -35 0 -1 -21 -9 -47 -18 -68 -23 -163 -88 -229 -158 -54 -56 -58 -59 -71 -42 -31 45 -89 94 -121 105 -34 11 -100 8 -134 -6 -17 -7 -18 15 -18 366 0 402 4 438 53 522 32 54 84 107 179 184 121 98 168 184 168 308 l0 65 345 0 345 0 0 -27z m-205 -29 c-46 -34 -118 -112 -136 -146 -25 -49 -24 -114 2 -162 l21 -39 -21 -20 c-11 -12 -24 -17 -28 -13 -5 4 -8 92 -8 194 l0 187 50 6 c28 3 70 6 95 7 42 1 44 0 25 -14z m24 -157 c1 -57 -17 -103 -53 -136 -33 -31 -40 -24 -22 21 17 39 48 169 43 175 -5 4 -59 -117 -76 -169 -16 -47 -28 -48 -37 -3 -12 66 3 104 69 173 l62 64 7 -39 c4 -21 7 -60 7 -86z m191 -295 c0 -25 -101 -149 -137 -169 -39 -22 -113 -32 -113 -15 0 4 40 34 89 65 156 100 134 113 -31 18 -45 -27 -85 -47 -86 -46 -2 2 5 23 16 48 22 50 63 83 118 96 51 12 144 13 144 3z m-586 -123 c47 -13 113 -74 122 -112 l6 -28 -38 26 c-44 30 -122 71 -162 86 l-27 9 30 -26 c17 -14 63 -47 103 -74 77 -50 78 -60 4 -60 -62 1 -90 24 -151 128 -17 29 -31 55 -31 57 0 9 106 5 144 -6z m235 -229 l1 -35 -21 34 c-18 29 -19 38 -8 60 l12 26 8 -25 c4 -14 7 -41 8 -60z m-1 -96 c14 -63 -16 -262 -37 -249 -5 2 -17 34 -26 69 -18 67 -19 236 -1 265 13 21 53 -32 64 -85z m341 60 l54 -24 -54 -39 c-110 -78 -174 -92 -225 -47 l-28 23 95 17 c52 10 108 24 124 31 27 12 23 13 -50 8 -44 -3 -98 -9 -120 -14 -22 -4 -42 -6 -44 -3 -10 9 47 56 85 69 47 18 90 12 163 -21z m-639 -155 c61 -13 106 -49 131 -104 29 -64 22 -68 -29 -16 -48 48 -138 108 -148 98 -3 -2 31 -38 75 -78 45 -40 81 -76 81 -81 0 -13 -47 -9 -83 6 -40 17 -54 33 -101 119 l-37 67 30 0 c17 0 53 -5 81 -11z m244 -204 c6 -17 -3 -47 -18 -57 -21 -15 -33 -8 -43 26 -9 30 -8 36 6 39 33 9 49 7 55 -8z m567 -369 c-30 -32 -126 -83 -179 -94 -60 -14 -44 0 35 31 37 15 88 40 113 57 55 36 60 37 31 6z m-746 -13 c-56 -14 -71 -16 -62 -7 12 13 82 31 96 26 9 -4 -4 -11 -34 -19z m503 -21 c-29 -5 -93 14 -107 32 -8 10 8 8 58 -8 45 -13 63 -22 49 -24z m-831 -8 c18 -16 21 -22 8 -15 -32 15 -61 40 -48 41 7 0 25 -12 40 -26z m418 6 c-3 -5 -18 -10 -33 -10 -15 0 -57 -11 -94 -24 -38 -12 -68 -21 -68 -20 0 7 66 38 105 50 49 16 98 18 90 4z m114 -99 c8 -5 -12 -10 -55 -13 -80 -6 -90 -3 -43 11 44 12 80 13 98 2z"/>
<path d="M710 2220 c-168 -3 -238 -8 -206 -12 62 -10 583 -8 656 2 47 6 39 7 -57 9 -61 0 -117 2 -125 4 -7 1 -128 0 -268 -3z"/>
<path d="M785 2140 c-47 -4 -1 -7 138 -8 137 -1 206 1 202 8 -7 11 -222 11 -340 0z"/>
<path d="M1095 1993 c-41 -9 -49 -13 -39 -23 12 -12 74 6 74 21 0 9 -2 10 -35 2z"/>
<path d="M560 1985 c0 -2 15 -12 33 -20 l32 -16 -24 21 c-22 19 -41 26 -41 15z"/>
<path d="M1120 1939 c0 -5 5 -7 10 -4 6 3 10 8 10 11 0 2 -4 4 -10 4 -5 0 -10 -5 -10 -11z"/>
<path d="M613 1750 c28 -28 52 -48 55 -45 6 6 -84 95 -97 95 -4 0 14 -23 42 -50z"/>
<path d="M1097 1793 c-4 -3 -7 -11 -7 -17 0 -6 5 -5 12 2 6 6 9 14 7 17 -3 3 -9 2 -12 -2z"/>
<path d="M1134 1779 c-19 -22 -19 -22 4 -10 12 6 22 16 22 21 0 15 -5 12 -26 -11z"/>
<path d="M605 1699 c44 -46 81 -85 83 -88 1 -2 5 -2 8 1 7 8 -123 146 -150 160 -12 6 15 -27 59 -73z"/>
<path d="M1140 1745 c-7 -8 -8 -15 -2 -15 5 0 15 7 22 15 7 8 8 15 2 15 -5 0 -15 -7 -22 -15z"/>
<path d="M1195 1654 c-19 -15 -22 -21 -9 -15 18 9 52 41 43 41 -2 0 -17 -12 -34 -26z"/>
<path d="M580 1650 c8 -5 20 -10 25 -10 6 0 3 5 -5 10 -8 5 -19 10 -25 10 -5 0 -3 -5 5 -10z"/>
<path d="M410 1619 c0 -11 105 -41 127 -37 9 2 -16 12 -55 24 -40 12 -72 17 -72 13z"/>
<path d="M490 1556 c0 -10 28 -13 41 -5 10 6 7 9 -13 9 -16 0 -28 -2 -28 -4z"/>
<path d="M1238 1283 c7 -3 16 -2 19 1 4 3 -2 6 -13 5 -11 0 -14 -3 -6 -6z"/>
<path d="M1193 1263 c9 -2 23 -2 30 0 6 3 -1 5 -18 5 -16 0 -22 -2 -12 -5z"/>
<path d="M500 1177 c8 -8 120 -56 120 -52 0 3 -17 13 -37 24 -40 19 -92 37 -83 28z"/>
<path d="M464 1143 c10 -11 177 -83 172 -75 -7 12 -106 61 -145 72 -19 5 -31 7 -27 3z"/>
<path d="M1388 852 c-3 -113 -10 -187 -18 -201 -9 -18 -9 -22 0 -16 30 19 40 75 40 229 0 85 -4 157 -9 160 -4 3 -10 -75 -13 -172z"/>
<path d="M1083 918 c-23 -12 -61 -41 -85 -66 l-43 -44 76 54 c42 29 85 58 95 65 32 20 1 14 -43 -9z"/>
<path d="M1154 904 c-67 -36 -142 -92 -155 -116 -7 -13 20 1 73 38 156 109 175 127 82 78z"/>
<path d="M173 790 c0 -30 2 -43 4 -27 2 15 2 39 0 55 -2 15 -4 2 -4 -28z"/>
<path d="M1130 745 c-14 -8 -20 -14 -14 -15 5 0 19 7 30 15 24 18 16 19 -16 0z"/>
<path d="M495 720 c10 -11 23 -20 28 -20 6 0 2 9 -8 20 -10 11 -23 20 -28 20 -6 0 -2 -9 8 -20z"/>
<path d="M1210 700 c0 -5 5 -10 10 -10 6 0 10 5 10 10 0 6 -4 10 -10 10 -5 0 -10 -4 -10 -10z"/>
<path d="M291 694 c-1 -15 52 -95 77 -118 31 -27 27 -13 -10 37 -18 23 -41 54 -50 67 -9 14 -17 20 -17 14z"/>
<path d="M300 2841 c0 -12 81 -86 111 -101 14 -7 -2 14 -36 49 -57 59 -75 71 -75 52z"/>
<path d="M1398 2707 c-31 -23 -65 -47 -75 -54 -14 -10 -11 -10 15 -1 41 13 124 68 130 86 6 20 -10 13 -70 -31z"/>
<path d="M160 2610 c0 -13 98 -60 125 -60 13 0 7 7 -20 21 -22 12 -49 28 -60 35 -23 17 -45 18 -45 4z"/>
<path d="M1545 2535 l-60 -13 55 -1 c61 -1 100 7 100 20 0 11 -19 10 -95 -6z"/>
<path d="M133 2407 c-52 -20 -46 -24 16 -13 33 6 63 14 67 19 11 11 -47 7 -83 -6z"/>
<path d="M90 2350 c-30 -10 -46 -18 -35 -19 28 -1 154 24 162 32 13 14 -74 5 -127 -13z"/>
<path d="M115 2310 c-3 -5 3 -10 14 -10 12 0 21 5 21 10 0 6 -6 10 -14 10 -8 0 -18 -4 -21 -10z"/>
<path d="M1510 2148 c3 -3 36 -21 73 -41 73 -40 85 -34 14 7 -37 21 -100 46 -87 34z"/>
<path d="M1500 2107 c9 -9 130 -67 130 -63 0 8 -82 53 -110 61 -14 4 -23 5 -20 2z"/>
<path d="M101 1939 c-22 -34 -41 -66 -41 -71 0 -5 20 21 45 58 25 37 43 69 41 71 -2 2 -22 -24 -45 -58z"/>
<path d="M147 1944 c-46 -65 -70 -104 -64 -104 5 0 56 70 90 123 29 45 9 31 -26 -19z"/>
<path d="M1450 1853 c18 -24 35 -43 37 -43 7 0 -35 56 -54 71 -9 8 -2 -5 17 -28z"/>
<path d="M1420 1835 c19 -19 36 -35 39 -35 3 0 -10 16 -29 35 -19 19 -36 35 -39 35 -3 0 10 -16 29 -35z"/>
</g>
</svg>