<?xml version="1.0" standalone="no"?>
<!DOCTYPE svg PUBLIC "-//W3C//DTD SVG 20010904//EN" "http://www.w3.org/TR/2001/REC-SVG-20010904/DTD/svg10.dtd">
<svg xmlns="http://www.w3.org/2000/svg" version="1.0" width="980" height="980" viewBox="0 0 980.000000 980.000000" preserveAspectRatio="xMidYMid meet">

<g transform="translate(0.000000,980.000000) scale(0.100000,-0.100000)" fill="#303032" stroke="none">
<path d="M4838 9296 c-95 -50 -429 -358 -588 -542 -590 -684 -931 -1540 -1001 -2509 -13 -180 -7 -580 12 -747 l11 -108 -79 -87 c-265 -295 -427 -540 -567 -857 -128 -291 -226 -689 -214 -874 4 -57 8 -66 41 -100 l37 -37 463 -3 c425 -2 465 -1 496 15 53 28 76 66 75 126 0 63 -23 101 -75 128 -36 18 -61 19 -388 19 l-350 0 6 38 c14 93 86 349 128 458 63 160 176 378 268 516 82 122 202 278 215 278 4 0 23 -62 41 -137 124 -513 364 -1040 661 -1452 l78 -109 -31 -101 c-30 -101 -31 -101 -62 -101 -52 0 -201 -29 -268 -51 -81 -28 -190 -83 -250 -125 -26 -19 -51 -34 -55 -34 -5 0 -21 14 -38 31 -77 81 -236 171 -381 216 -79 24 -104 26 -243 27 -129 0 -168 -4 -235 -22 -398 -110 -678 -461 -688 -864 l-2 -87 -75 -32 c-110 -49 -208 -119 -292 -208 -115 -123 -192 -270 -224 -430 -20 -101 -15 -281 10 -376 77 -289 290 -520 569 -616 145 -50 285 -63 347 -31 74 37 102 131 60 199 -30 49 -62 65 -156 74 -165 17 -271 65 -379 174 -127 126 -182 269 -172 445 9 153 63 276 167 379 56 56 171 131 200 131 9 0 22 -15 29 -36 24 -67 130 -211 209 -285 107 -100 182 -144 243 -143 107 1 170 108 123 207 -10 20 -41 50 -80 76 -130 88 -231 228 -269 376 -21 79 -21 233 0 310 24 89 79 195 136 259 253 283 684 287 938 9 132 -143 186 -321 161 -523 -12 -92 -12 -101 7 -137 26 -51 97 -88 150 -78 58 11 108 67 124 140 31 145 8 382 -51 520 l-21 50 25 20 c53 42 137 87 206 111 87 29 114 31 107 7 -78 -257 -80 -272 -35 -328 45 -57 11 -55 988 -55 977 0 943 -2 988 55 45 56 43 71 -35 328 -7 23 17 22 98 -4 68 -22 166 -74 212 -112 l28 -23 -21 -50 c-59 -137 -82 -375 -51 -519 16 -73 66 -129 124 -140 50 -10 124 27 151 74 18 32 19 40 7 137 -27 223 30 396 184 549 90 91 165 133 291 165 239 61 506 -35 653 -234 86 -116 122 -227 122 -371 0 -116 -17 -191 -66 -291 -40 -81 -132 -186 -207 -237 -80 -53 -100 -79 -106 -135 -8 -89 50 -155 137 -156 60 -1 134 42 242 142 80 74 186 218 210 286 7 20 20 36 28 36 31 0 148 -76 206 -135 137 -140 195 -350 150 -544 -59 -248 -305 -450 -550 -451 -62 0 -113 -25 -142 -69 -46 -69 -19 -164 57 -204 73 -38 305 0 453 74 127 64 258 177 336 292 46 68 105 199 127 282 28 107 26 334 -4 438 -74 258 -255 465 -503 576 l-74 34 -2 86 c-4 169 -54 327 -151 476 -119 183 -296 314 -519 382 -80 24 -103 27 -248 27 -145 0 -168 -3 -248 -27 -145 -45 -304 -135 -381 -216 -17 -17 -33 -31 -37 -31 -4 0 -31 16 -60 36 -70 47 -168 96 -246 123 -67 22 -216 51 -268 51 -31 0 -32 1 -62 101 l-31 101 88 124 c295 415 528 928 651 1437 18 75 37 137 41 137 13 0 133 -156 215 -278 94 -141 207 -359 268 -517 43 -110 115 -366 128 -458 l6 -37 -351 0 c-386 0 -396 -1 -440 -63 -30 -42 -31 -124 -2 -164 46 -63 43 -63 538 -63 436 0 449 1 486 21 52 29 70 65 70 139 0 153 -68 472 -144 679 -152 410 -346 717 -674 1070 -43 46 -43 46 -37 106 38 406 31 797 -21 1155 -102 706 -375 1381 -783 1930 -162 219 -432 502 -639 668 -120 97 -145 112 -192 112 -19 0 -47 -6 -62 -14z m-78 -1209 l0 -762 31 -37 c57 -70 157 -72 217 -3 24 27 32 46 37 97 3 35 5 379 3 766 -2 386 0 702 3 702 13 0 288 -290 361 -380 468 -581 752 -1294 840 -2105 17 -158 17 -672 0 -830 -76 -698 -278 -1277 -641 -1832 l-86 -133 -240 0 -240 0 0 618 0 617 -23 36 c-55 89 -188 91 -242 4 -19 -32 -20 -48 -20 -654 l0 -621 -242 0 -243 0 -86 133 c-190 290 -311 536 -426 857 -257 725 -303 1556 -128 2335 127 567 393 1124 749 1570 80 100 352 385 368 385 4 0 8 -343 8 -763z m648 -4839 c5 -18 44 -144 86 -279 42 -135 76 -251 76 -257 0 -9 -172 -12 -670 -12 -498 0 -670 3 -670 12 0 6 34 122 76 257 42 135 81 261 86 279 l9 32 499 0 499 0 9 -32z"/>
<path d="M4832 7023 c-46 -22 -66 -57 -72 -121 -5 -54 -6 -55 -45 -67 -103 -30 -192 -99 -255 -197 -54 -82 -73 -164 -68 -281 3 -85 8 -103 41 -170 87 -177 239 -267 452 -267 104 0 155 -18 198 -69 34 -40 41 -67 35 -135 -5 -61 -30 -99 -86 -133 -36 -22 -46 -23 -280 -23 -262 0 -285 -4 -331 -53 -29 -32 -40 -112 -21 -157 26 -62 59 -74 215 -80 l140 -5 3 -30 c10 -111 85 -171 180 -146 63 18 89 54 111 156 1 3 1 11 1 19 0 7 26 23 59 35 311 113 404 514 176 759 -95 103 -221 151 -394 152 -71 0 -91 4 -125 24 -102 59 -119 204 -34 283 51 48 81 53 334 53 264 0 287 5 325 66 27 44 28 117 2 152 -45 60 -64 67 -211 72 l-137 5 -3 39 c-4 54 -25 90 -65 115 -41 25 -99 27 -145 4z"/>
</g>
</svg>